<svg id="svg" version="1.1" xmlns="http://www.w3.org/2000/svg" xmlns:xlink="http://www.w3.org/1999/xlink" width="400" height="400" viewBox="0, 0, 400,400"><g id="svgg"><path id="path0" d="M300.274 136.659 C 299.885 137.049,299.944 222.493,300.335 223.108 C 300.583 223.499,302.678 223.591,309.429 223.508 L 318.200 223.400 318.400 213.205 C 318.639 201.026,318.555 201.173,322.709 205.619 C 324.189 207.204,326.750 209.892,328.400 211.593 C 330.050 213.294,333.332 216.693,335.692 219.148 L 339.985 223.612 352.059 223.506 C 360.280 223.434,364.180 223.262,364.278 222.967 C 364.357 222.729,361.072 219.129,356.978 214.967 C 341.151 198.877,338.928 196.566,338.290 195.537 C 337.545 194.338,336.840 195.171,344.161 188.600 C 345.877 187.060,348.477 184.659,349.940 183.263 C 352.295 181.018,355.547 178.016,361.565 172.536 L 363.392 170.872 361.996 170.611 C 361.228 170.468,355.650 170.406,349.600 170.475 L 338.600 170.600 332.334 176.800 C 319.450 189.547,319.666 189.353,319.008 188.807 C 318.485 188.373,318.392 184.905,318.303 162.453 L 318.200 136.600 309.374 136.493 C 304.520 136.433,300.425 136.508,300.274 136.659 M255.478 168.856 C 253.321 169.046,251.065 169.456,250.464 169.767 C 249.864 170.077,248.710 170.456,247.900 170.608 C 247.091 170.759,246.224 171.130,245.974 171.431 C 245.724 171.732,244.908 172.094,244.160 172.234 C 243.412 172.374,242.800 172.619,242.800 172.777 C 242.800 172.936,241.855 173.657,240.700 174.381 C 238.508 175.754,233.201 181.054,233.200 181.871 C 233.200 182.131,232.964 182.581,232.674 182.871 C 231.997 183.553,230.000 187.775,230.000 188.525 C 230.000 188.841,229.718 189.887,229.373 190.850 C 228.523 193.222,228.525 200.358,229.377 202.750 C 229.720 203.713,230.000 204.886,230.000 205.356 C 230.000 205.827,230.360 206.884,230.800 207.704 C 231.240 208.525,231.600 209.440,231.600 209.737 C 231.600 210.033,231.960 210.602,232.400 211.000 C 232.840 211.398,233.200 211.996,233.200 212.328 C 233.200 212.997,233.199 212.996,237.252 217.100 C 238.828 218.695,240.333 220.000,240.596 220.000 C 240.860 220.000,241.402 220.360,241.800 220.800 C 242.198 221.240,242.775 221.600,243.083 221.600 C 243.390 221.600,244.307 221.953,245.121 222.384 C 248.366 224.104,249.565 224.489,253.600 225.107 C 260.344 226.140,269.875 225.519,273.132 223.835 C 273.808 223.486,274.656 223.200,275.017 223.200 C 275.378 223.200,276.131 222.840,276.691 222.400 C 277.250 221.960,277.946 221.600,278.236 221.600 C 278.840 221.600,280.548 220.487,283.465 218.191 C 285.999 216.198,289.907 211.028,290.609 208.741 C 290.768 208.224,291.036 207.620,291.205 207.400 C 294.361 203.291,293.185 189.596,289.074 182.592 C 286.683 178.516,280.765 173.177,277.550 172.195 C 277.027 172.036,276.330 171.679,276.000 171.403 C 275.670 171.127,274.686 170.773,273.814 170.616 C 272.941 170.460,271.754 170.087,271.176 169.788 C 270.274 169.321,261.763 168.310,260.000 168.459 C 259.670 168.487,257.635 168.666,255.478 168.856 M138.200 169.219 C 136.303 169.349,134.511 169.715,133.800 170.117 C 133.140 170.490,132.202 170.796,131.715 170.798 C 129.113 170.805,120.789 178.075,118.890 182.000 C 118.624 182.550,118.231 183.270,118.017 183.600 C 117.240 184.798,116.000 187.976,116.000 188.770 C 116.000 189.218,115.685 190.352,115.300 191.292 C 114.440 193.391,114.275 203.085,115.082 204.058 C 115.348 204.378,115.693 205.441,115.848 206.420 C 116.243 208.898,118.653 213.845,120.100 215.148 C 120.485 215.494,120.800 215.916,120.800 216.085 C 120.800 216.255,121.385 216.929,122.100 217.585 C 122.815 218.240,123.670 219.034,124.000 219.349 C 124.330 219.664,125.431 220.362,126.447 220.901 C 127.462 221.439,128.717 222.177,129.236 222.540 C 129.754 222.903,130.568 223.200,131.045 223.200 C 131.522 223.200,132.697 223.556,133.656 223.991 C 136.179 225.136,145.037 225.142,147.400 224.000 C 148.280 223.575,149.228 223.221,149.506 223.214 C 150.299 223.192,154.099 220.941,155.592 219.607 C 158.165 217.310,158.485 218.178,158.326 227.037 C 158.172 235.569,159.175 234.785,148.400 234.799 L 139.800 234.811 138.200 236.680 C 137.320 237.707,136.150 239.026,135.600 239.610 C 135.050 240.193,134.073 241.285,133.430 242.035 C 132.786 242.786,131.017 244.790,129.498 246.488 C 125.088 251.420,122.988 250.983,151.707 251.103 L 176.404 251.206 176.302 210.903 L 176.200 170.600 167.400 170.600 L 158.600 170.600 158.400 172.559 C 158.111 175.389,157.279 175.756,155.366 173.898 C 154.541 173.097,153.356 172.230,152.733 171.972 C 152.110 171.714,151.600 171.345,151.600 171.151 C 151.600 170.958,151.318 170.800,150.974 170.800 C 150.630 170.800,149.505 170.452,148.474 170.026 C 146.378 169.160,142.972 168.892,138.200 169.219 M76.282 173.048 C 69.183 180.882,69.076 180.913,68.800 175.168 L 68.600 171.000 59.497 170.892 L 50.394 170.785 50.497 197.292 L 50.600 223.800 59.199 223.908 C 66.931 224.006,67.849 223.947,68.299 223.332 C 68.682 222.809,68.800 218.566,68.800 205.338 C 68.800 188.634,68.827 188.014,69.574 187.614 C 70.557 187.088,87.970 187.067,88.800 187.591 C 89.314 187.916,89.429 190.545,89.600 205.885 L 89.800 223.800 98.371 223.908 C 104.961 223.991,107.017 223.899,107.265 223.508 C 107.443 223.229,107.591 214.518,107.594 204.151 L 107.600 185.302 106.571 182.151 C 106.006 180.418,105.286 178.856,104.971 178.680 C 104.657 178.504,104.400 178.120,104.400 177.826 C 104.400 177.359,102.944 175.943,99.652 173.210 C 99.131 172.778,98.321 172.307,97.852 172.165 C 97.384 172.022,96.669 171.614,96.264 171.259 C 95.650 170.718,94.149 170.587,87.147 170.460 L 78.765 170.309 76.282 173.048 M186.497 170.732 C 186.100 170.984,186.016 176.551,186.097 197.225 L 186.200 223.400 195.000 223.400 L 203.800 223.400 204.000 205.685 C 204.171 190.523,204.286 187.916,204.800 187.591 C 205.130 187.383,208.297 187.209,211.837 187.206 L 218.275 187.200 221.437 183.735 C 223.177 181.828,224.870 179.972,225.200 179.610 C 225.530 179.247,226.787 177.791,227.993 176.375 C 229.199 174.959,230.764 173.175,231.472 172.411 C 233.281 170.459,233.073 170.413,222.447 170.406 L 213.094 170.400 211.847 171.728 C 211.161 172.458,209.527 174.258,208.215 175.728 C 204.701 179.663,204.000 179.378,204.000 174.014 C 204.000 171.116,203.936 170.876,203.100 170.652 C 201.756 170.292,187.079 170.362,186.497 170.732 M151.200 184.916 C 154.685 186.642,158.400 190.535,158.400 192.461 C 158.400 192.780,158.590 193.230,158.823 193.463 C 159.594 194.234,159.763 198.190,159.084 199.552 C 158.744 200.234,158.344 201.346,158.195 202.023 C 158.046 202.700,157.672 203.351,157.362 203.470 C 157.053 203.588,156.800 203.899,156.800 204.160 C 156.800 204.420,156.035 205.363,155.100 206.255 C 146.296 214.652,132.442 207.354,133.806 195.037 C 134.673 187.209,144.400 181.549,151.200 184.916 M266.161 185.168 C 269.380 186.710,270.316 187.703,272.960 192.382 C 274.604 195.291,273.675 202.112,271.374 204.022 C 271.058 204.284,270.800 204.725,270.800 205.002 C 270.800 205.749,267.717 208.400,266.848 208.400 C 266.435 208.400,265.874 208.670,265.600 209.000 C 264.688 210.098,257.706 209.827,255.333 208.601 C 252.640 207.210,249.600 204.033,249.600 202.610 C 249.600 202.419,249.285 201.915,248.900 201.490 C 248.341 200.872,248.200 199.981,248.200 197.058 C 248.200 187.438,257.729 181.130,266.161 185.168 " stroke="none" fill="#f7f7fa" fill-rule="evenodd"></path><path id="path1" d="M0.000 200.000 L 0.000 400.000 200.000 400.000 L 400.000 400.000 400.000 200.000 L 400.000 0.000 200.000 0.000 L 0.000 0.000 0.000 200.000 M318.971 135.829 C 319.530 136.387,319.600 139.289,319.600 161.746 L 319.600 187.034 323.538 183.217 C 325.704 181.118,329.698 177.240,332.413 174.600 C 339.500 167.709,337.335 168.406,351.686 168.403 C 363.425 168.400,363.990 168.434,364.386 169.174 C 365.083 170.475,364.894 172.050,364.013 172.281 C 363.581 172.394,363.118 172.827,362.986 173.243 C 362.854 173.659,362.597 174.000,362.415 174.000 C 362.233 174.000,360.759 175.305,359.139 176.900 C 357.519 178.495,354.305 181.483,351.997 183.540 C 349.689 185.597,346.856 188.162,345.701 189.240 C 344.547 190.318,343.443 191.200,343.248 191.200 C 343.053 191.200,342.799 191.560,342.684 192.000 C 342.569 192.440,342.188 192.800,341.837 192.800 C 341.487 192.800,341.200 193.058,341.200 193.373 C 341.200 193.688,340.840 194.060,340.400 194.200 C 339.255 194.563,339.394 195.023,341.200 196.847 C 342.080 197.736,342.800 198.617,342.800 198.805 C 342.800 198.992,343.160 199.260,343.600 199.400 C 344.040 199.540,344.400 199.912,344.400 200.227 C 344.400 200.542,344.676 200.800,345.013 200.800 C 345.349 200.800,345.736 201.088,345.871 201.440 C 346.188 202.268,347.921 204.000,348.431 204.000 C 348.648 204.000,348.932 204.278,349.062 204.618 C 349.366 205.411,352.746 208.800,353.232 208.800 C 353.434 208.800,353.600 208.958,353.600 209.152 C 353.600 209.678,357.439 213.600,357.954 213.600 C 358.199 213.600,358.400 213.939,358.400 214.353 C 358.400 214.770,358.757 215.200,359.200 215.316 C 359.640 215.431,360.000 215.812,360.000 216.163 C 360.000 216.513,360.181 216.800,360.403 216.800 C 361.444 216.800,366.400 222.310,366.400 223.468 C 366.400 225.607,366.448 225.600,352.568 225.600 L 339.697 225.600 337.648 223.646 C 336.522 222.572,335.600 221.492,335.600 221.246 C 335.600 221.001,335.339 220.800,335.020 220.800 C 334.701 220.800,334.282 220.519,334.090 220.175 C 333.762 219.589,326.698 211.949,322.900 208.072 C 321.965 207.118,321.200 206.214,321.200 206.065 C 321.200 205.915,320.851 205.575,320.425 205.309 C 319.668 204.836,319.648 205.049,319.525 214.827 C 319.421 223.189,319.302 224.892,318.800 225.209 C 317.912 225.770,300.673 225.707,299.425 225.139 C 297.927 224.456,297.964 225.700,298.086 179.212 L 298.200 136.224 299.200 135.718 C 300.821 134.898,318.138 134.995,318.971 135.829 M144.928 167.525 C 145.187 167.732,146.422 168.025,147.672 168.176 C 148.922 168.327,150.149 168.698,150.400 169.000 C 150.650 169.302,151.395 169.667,152.055 169.812 C 152.714 169.957,153.351 170.328,153.470 170.638 C 153.588 170.947,153.927 171.200,154.222 171.200 C 154.517 171.200,155.263 171.668,155.879 172.240 L 157.000 173.281 157.251 171.281 C 157.634 168.238,157.066 168.400,167.354 168.400 L 176.661 168.400 177.630 169.432 L 178.600 170.464 178.706 210.666 L 178.811 250.868 177.563 252.034 L 176.315 253.200 151.778 253.200 L 127.241 253.200 126.221 252.254 C 124.563 250.718,125.317 248.506,128.728 244.900 C 129.820 243.745,130.818 242.530,130.945 242.200 C 131.071 241.870,131.451 241.600,131.787 241.600 C 132.124 241.600,132.400 241.392,132.400 241.138 C 132.400 240.883,133.075 240.001,133.900 239.177 C 135.250 237.829,136.759 236.079,137.519 234.979 C 138.926 232.944,139.659 232.800,148.654 232.800 L 157.200 232.800 157.200 226.586 C 157.200 219.971,157.040 219.583,155.218 221.778 C 154.934 222.120,154.497 222.400,154.247 222.400 C 153.997 222.400,153.568 222.760,153.293 223.200 C 153.018 223.640,152.418 224.000,151.960 224.000 C 151.501 224.000,150.669 224.360,150.109 224.800 C 149.360 225.389,148.486 225.600,146.795 225.600 C 145.531 225.600,143.851 225.870,143.062 226.200 C 141.253 226.956,140.107 226.955,138.654 226.198 C 137.976 225.844,136.426 225.599,134.854 225.597 C 132.878 225.595,131.893 225.392,131.000 224.800 C 130.340 224.363,129.468 224.004,129.063 224.003 C 128.658 224.001,127.869 223.640,127.309 223.200 C 126.750 222.760,125.969 222.400,125.573 222.400 C 125.178 222.400,124.740 222.040,124.600 221.600 C 124.460 221.160,124.083 220.800,123.760 220.800 C 123.438 220.800,123.071 220.530,122.945 220.200 C 122.818 219.870,122.480 219.600,122.193 219.600 C 121.714 219.600,120.644 218.460,118.883 216.075 C 118.507 215.566,117.885 214.851,117.500 214.486 C 117.115 214.121,116.800 213.440,116.800 212.973 C 116.800 212.506,116.440 211.798,116.000 211.400 C 115.560 211.002,115.200 210.230,115.200 209.685 C 115.200 209.140,114.858 208.133,114.439 207.447 C 113.230 205.466,113.064 189.793,114.240 188.618 C 114.591 188.266,114.974 187.270,115.090 186.405 C 115.206 185.540,115.638 184.527,116.050 184.154 C 116.463 183.781,116.800 183.082,116.800 182.600 C 116.800 182.118,117.160 181.398,117.600 181.000 C 118.040 180.602,118.400 180.124,118.400 179.938 C 118.400 179.752,118.715 179.259,119.100 178.843 C 119.485 178.427,120.302 177.392,120.916 176.543 C 121.530 175.694,122.668 174.550,123.447 174.000 C 124.225 173.450,125.324 172.595,125.889 172.100 C 126.454 171.605,127.138 171.200,127.409 171.200 C 127.680 171.200,128.110 170.949,128.365 170.642 C 128.620 170.335,129.434 169.970,130.174 169.831 C 130.914 169.692,131.729 169.327,131.985 169.019 C 132.242 168.708,133.637 168.331,135.112 168.173 C 136.576 168.016,138.320 167.639,138.987 167.335 C 140.290 166.741,144.098 166.863,144.928 167.525 M268.647 167.378 C 269.100 167.695,270.445 168.082,271.636 168.237 C 272.826 168.391,274.229 168.851,274.754 169.259 C 275.279 169.667,276.112 170.000,276.605 170.000 C 277.098 170.000,277.726 170.270,278.000 170.600 C 278.274 170.930,278.701 171.203,278.949 171.207 C 279.632 171.218,282.633 173.307,284.829 175.300 C 285.253 175.685,285.768 176.000,285.973 176.000 C 286.178 176.000,286.455 176.343,286.588 176.763 C 286.721 177.183,287.094 177.627,287.415 177.750 C 287.737 177.874,288.000 178.251,288.000 178.587 C 288.000 178.924,288.268 179.200,288.595 179.200 C 288.922 179.200,289.443 179.808,289.754 180.551 C 290.064 181.294,290.517 182.025,290.759 182.175 C 291.002 182.325,291.200 182.707,291.200 183.024 C 291.200 183.341,291.560 183.960,292.000 184.400 C 292.503 184.903,292.800 185.733,292.800 186.637 C 292.800 187.468,293.137 188.503,293.600 189.091 C 294.330 190.019,294.400 190.714,294.400 197.000 C 294.400 203.286,294.330 203.981,293.600 204.909 C 293.136 205.499,292.800 206.532,292.800 207.367 C 292.800 208.313,292.525 209.043,292.000 209.493 C 291.560 209.870,291.200 210.474,291.200 210.835 C 291.200 211.196,290.840 211.950,290.400 212.509 C 289.960 213.069,289.600 213.647,289.600 213.794 C 289.600 214.043,288.204 215.568,285.487 218.287 C 283.746 220.029,282.826 220.800,282.489 220.800 C 282.318 220.800,281.870 221.160,281.493 221.600 C 281.116 222.040,280.486 222.400,280.093 222.400 C 279.700 222.400,279.070 222.760,278.693 223.200 C 278.312 223.645,277.513 224.000,276.893 224.000 C 276.273 224.000,275.474 224.355,275.093 224.800 C 274.589 225.389,273.913 225.600,272.535 225.600 C 271.313 225.600,270.394 225.843,269.890 226.300 C 269.203 226.921,268.146 227.000,260.526 227.000 C 252.806 227.000,251.884 226.929,251.424 226.300 C 251.077 225.826,250.370 225.600,249.235 225.600 C 247.787 225.600,246.296 225.050,243.600 223.524 C 243.270 223.337,242.407 222.912,241.683 222.579 C 240.958 222.247,240.264 221.710,240.140 221.387 C 240.016 221.064,239.664 220.800,239.357 220.800 C 239.051 220.800,238.460 220.460,238.045 220.045 C 237.630 219.630,237.041 219.135,236.737 218.945 C 235.894 218.419,232.400 214.271,232.400 213.796 C 232.400 213.566,232.040 213.070,231.600 212.693 C 231.160 212.316,230.800 211.674,230.800 211.266 C 230.800 210.858,230.440 210.198,230.000 209.800 C 229.500 209.348,229.200 208.568,229.200 207.722 C 229.200 206.977,228.829 205.866,228.375 205.252 C 227.216 203.684,227.324 189.008,228.500 188.351 C 228.983 188.082,229.200 187.469,229.200 186.376 C 229.200 185.287,229.450 184.578,230.000 184.107 C 230.440 183.730,230.800 183.130,230.800 182.773 C 230.800 182.416,231.160 181.798,231.600 181.400 C 232.040 181.002,232.400 180.510,232.400 180.307 C 232.400 180.103,233.120 179.224,234.000 178.353 C 234.880 177.482,235.600 176.596,235.600 176.385 C 235.600 176.173,235.774 176.000,235.987 176.000 C 236.199 176.000,237.003 175.370,237.773 174.600 C 238.543 173.830,239.288 173.200,239.429 173.200 C 239.569 173.200,240.219 172.750,240.873 172.200 C 241.527 171.650,242.386 171.200,242.782 171.200 C 243.178 171.200,243.726 170.930,244.000 170.600 C 244.274 170.270,244.770 170.000,245.102 170.000 C 245.434 170.000,246.267 169.656,246.953 169.236 C 247.639 168.816,249.230 168.346,250.488 168.192 C 251.746 168.037,252.983 167.661,253.237 167.355 C 253.920 166.533,267.469 166.553,268.647 167.378 M69.569 169.436 C 70.743 170.423,70.800 170.611,70.800 173.484 L 70.800 176.497 72.780 174.348 C 73.869 173.167,75.614 171.345,76.656 170.300 L 78.552 168.400 85.787 168.400 C 91.500 168.400,93.198 168.523,93.860 168.987 C 94.321 169.310,95.438 169.693,96.342 169.837 C 97.245 169.982,98.190 170.347,98.441 170.650 C 98.693 170.952,99.120 171.200,99.391 171.200 C 99.662 171.200,100.326 171.605,100.867 172.100 C 101.408 172.595,102.345 173.360,102.950 173.800 C 104.188 174.701,106.568 177.840,106.968 179.098 C 107.113 179.555,107.494 180.146,107.815 180.413 C 108.219 180.748,108.402 181.718,108.406 183.549 C 108.409 185.007,108.671 186.920,108.988 187.800 C 110.046 190.736,109.854 223.169,108.771 224.546 L 107.942 225.600 98.620 225.600 C 90.440 225.600,89.231 225.519,88.749 224.939 C 88.309 224.410,88.160 220.807,88.000 206.839 C 87.890 197.248,87.654 189.175,87.476 188.900 C 87.235 188.527,85.078 188.400,78.976 188.400 L 70.800 188.400 70.800 206.200 C 70.800 228.266,72.333 225.649,59.493 225.507 L 49.800 225.400 49.697 197.679 C 49.628 179.025,49.731 169.703,50.011 169.179 C 50.405 168.443,50.919 168.400,59.383 168.400 L 68.339 168.400 69.569 169.436 M204.786 169.174 C 205.014 169.599,205.200 171.309,205.200 172.974 C 205.200 174.638,205.297 176.000,205.415 176.000 C 205.680 176.000,208.646 172.917,209.996 171.238 C 210.543 170.557,211.212 170.000,211.482 170.000 C 211.751 170.000,212.165 169.640,212.400 169.200 C 212.845 168.368,232.622 167.917,233.868 168.710 C 234.829 169.322,234.924 171.101,234.037 171.862 C 233.576 172.255,233.200 172.702,233.200 172.854 C 233.200 173.006,232.246 174.091,231.081 175.266 C 229.915 176.441,228.841 177.717,228.693 178.101 C 228.546 178.486,228.170 178.800,227.859 178.800 C 227.548 178.800,227.199 179.160,227.084 179.600 C 226.969 180.040,226.588 180.400,226.237 180.400 C 225.887 180.400,225.598 180.625,225.596 180.900 C 225.593 181.421,221.764 186.100,221.151 186.333 C 220.958 186.407,220.800 186.688,220.800 186.959 C 220.800 188.297,217.932 188.996,211.600 189.200 L 205.400 189.400 205.296 206.964 C 205.224 219.120,205.055 224.693,204.747 225.064 C 204.042 225.913,186.113 225.835,184.889 224.977 L 184.000 224.355 184.000 197.177 C 184.000 170.533,184.016 169.984,184.800 169.200 C 186.019 167.981,204.135 167.958,204.786 169.174 M144.576 185.787 C 144.149 186.110,143.333 186.380,142.762 186.387 C 142.191 186.394,141.398 186.760,141.000 187.200 C 140.602 187.640,140.046 188.000,139.765 188.000 C 139.107 188.000,136.400 191.292,136.400 192.092 C 136.400 192.428,136.130 192.926,135.800 193.200 C 135.355 193.569,135.200 194.553,135.200 197.000 C 135.200 199.447,135.355 200.431,135.800 200.800 C 136.130 201.074,136.400 201.533,136.400 201.820 C 136.400 202.108,136.669 202.612,136.998 202.941 C 137.328 203.270,137.773 204.003,137.989 204.570 C 138.204 205.136,138.627 205.600,138.928 205.600 C 139.229 205.600,139.786 205.942,140.164 206.360 C 140.543 206.779,141.509 207.244,142.312 207.395 C 143.115 207.545,144.284 207.933,144.910 208.257 C 145.940 208.790,146.274 208.767,148.426 208.023 C 149.733 207.570,151.077 207.200,151.412 207.200 C 152.057 207.200,155.600 203.871,155.600 203.264 C 155.600 203.068,156.003 202.396,156.496 201.769 C 157.284 200.767,157.391 200.163,157.391 196.743 C 157.391 193.267,157.296 192.754,156.496 191.902 C 156.003 191.377,155.600 190.645,155.600 190.274 C 155.600 189.903,155.342 189.600,155.027 189.600 C 154.712 189.600,154.340 189.240,154.200 188.800 C 154.060 188.360,153.683 188.000,153.360 188.000 C 153.038 188.000,152.675 187.740,152.553 187.421 C 152.431 187.103,151.359 186.641,150.172 186.394 C 148.985 186.148,147.910 185.778,147.783 185.573 C 147.428 184.999,145.444 185.131,144.576 185.787 M259.024 185.813 C 258.596 186.136,257.776 186.400,257.201 186.400 C 255.800 186.400,252.000 189.250,252.000 190.301 C 252.000 190.589,251.748 190.922,251.441 191.040 C 251.133 191.158,250.683 192.041,250.441 193.003 C 250.199 193.965,249.820 194.864,249.600 195.000 C 249.108 195.304,249.067 198.270,249.551 198.570 C 249.744 198.689,250.107 199.603,250.358 200.601 C 250.610 201.599,251.127 202.772,251.508 203.208 C 253.794 205.825,255.453 207.158,256.721 207.396 C 257.488 207.540,258.372 207.915,258.686 208.229 C 259.412 208.955,261.980 208.968,263.011 208.251 C 263.445 207.949,264.390 207.574,265.112 207.417 C 266.498 207.115,270.000 204.224,270.000 203.381 C 270.000 203.109,270.238 202.794,270.528 202.683 C 272.153 202.060,272.171 191.947,270.549 191.325 C 270.247 191.209,269.994 190.909,269.987 190.657 C 269.970 190.032,268.322 188.209,267.484 187.887 C 267.108 187.743,266.800 187.448,266.800 187.231 C 266.800 187.014,266.125 186.718,265.300 186.573 C 264.475 186.429,263.401 186.060,262.914 185.755 C 261.773 185.040,260.011 185.066,259.024 185.813 " stroke="none" fill="#04248c" fill-rule="evenodd"></path><path id="path2" d="M299.618 136.766 C 298.998 137.925,299.039 222.146,299.660 223.326 C 300.410 224.752,300.647 224.787,309.486 224.794 C 319.861 224.801,318.800 226.071,318.800 213.650 C 318.800 206.854,318.934 203.964,319.259 203.763 C 319.540 203.590,322.460 206.344,326.759 210.834 C 330.632 214.879,335.187 219.632,336.882 221.395 L 339.963 224.600 352.569 224.721 L 365.174 224.842 365.436 223.800 C 365.673 222.855,364.760 221.816,355.549 212.552 C 349.967 206.938,344.031 200.962,342.358 199.273 C 338.016 194.888,337.978 195.269,343.256 190.360 C 345.716 188.072,349.095 184.926,350.764 183.370 C 353.731 180.603,357.682 176.968,361.985 173.046 C 365.485 169.856,365.384 169.822,352.157 169.684 C 337.872 169.536,339.274 169.181,334.101 174.255 C 331.735 176.575,327.500 180.732,324.690 183.493 C 321.879 186.254,319.449 188.383,319.290 188.223 C 319.130 188.064,318.910 176.294,318.800 162.067 L 318.600 136.200 309.318 136.093 C 300.462 135.990,300.017 136.021,299.618 136.766 M318.303 162.453 C 318.392 184.905,318.485 188.373,319.008 188.807 C 319.666 189.353,319.450 189.547,332.334 176.800 L 338.600 170.600 349.600 170.475 C 355.650 170.406,361.228 170.468,361.996 170.611 L 363.392 170.872 361.565 172.536 C 355.547 178.016,352.295 181.018,349.940 183.263 C 348.477 184.659,345.877 187.060,344.161 188.600 C 336.840 195.171,337.545 194.338,338.290 195.537 C 338.928 196.566,341.151 198.877,356.978 214.967 C 361.072 219.129,364.357 222.729,364.278 222.967 C 364.180 223.262,360.280 223.434,352.059 223.506 L 339.985 223.612 335.692 219.148 C 333.332 216.693,330.050 213.294,328.400 211.593 C 326.750 209.892,324.189 207.204,322.709 205.619 C 318.555 201.173,318.639 201.026,318.400 213.205 L 318.200 223.400 309.429 223.508 C 302.678 223.591,300.583 223.499,300.335 223.108 C 299.944 222.493,299.885 137.049,300.274 136.659 C 300.425 136.508,304.520 136.433,309.374 136.493 L 318.200 136.600 318.303 162.453 M253.800 168.409 C 250.151 169.086,246.003 170.395,245.000 171.186 C 244.780 171.360,244.166 171.636,243.634 171.799 C 241.147 172.563,234.250 178.524,232.757 181.200 C 232.327 181.970,231.571 183.320,231.076 184.200 C 228.669 188.477,227.550 195.177,228.336 200.600 C 229.038 205.443,229.506 206.782,232.505 212.531 C 234.993 217.300,244.392 224.070,249.825 225.007 C 250.691 225.156,252.288 225.531,253.373 225.839 C 256.032 226.595,265.188 226.592,267.827 225.834 C 268.912 225.522,270.610 225.140,271.600 224.985 C 273.272 224.723,277.930 222.654,281.200 220.720 C 292.788 213.868,297.501 194.313,290.243 183.200 C 289.740 182.430,289.015 181.290,288.633 180.667 C 282.866 171.265,267.524 165.866,253.800 168.409 M136.000 168.793 C 133.780 169.208,130.101 170.539,129.492 171.148 C 129.243 171.397,128.824 171.600,128.561 171.600 C 127.770 171.600,122.633 175.816,121.415 177.465 C 120.791 178.309,120.058 179.185,119.786 179.410 C 119.117 179.966,115.600 186.620,115.600 187.330 C 115.600 187.641,115.240 189.023,114.800 190.400 C 112.305 198.209,114.892 210.406,120.352 216.579 C 122.344 218.831,126.227 222.000,126.994 222.000 C 127.268 222.000,127.921 222.337,128.446 222.748 C 128.971 223.159,130.030 223.630,130.800 223.794 C 131.570 223.958,132.453 224.297,132.761 224.546 C 133.134 224.847,135.760 225.000,140.561 225.000 L 147.800 225.000 150.461 223.690 C 151.924 222.969,154.048 221.642,155.179 220.741 C 157.835 218.626,157.800 218.554,157.800 226.133 C 157.800 234.905,158.875 234.000,148.454 234.000 L 139.683 234.000 138.381 235.500 C 137.664 236.325,135.779 238.440,134.190 240.200 C 126.133 249.127,125.487 250.127,126.880 251.520 C 127.514 252.154,175.247 252.217,176.426 251.586 C 177.605 250.955,177.646 171.328,176.469 170.262 C 175.835 169.689,174.575 169.600,167.095 169.600 C 157.464 169.600,158.357 169.312,157.799 172.597 C 157.406 174.911,157.315 174.940,155.601 173.295 C 154.016 171.774,152.962 171.140,149.400 169.563 C 147.180 168.581,139.499 168.139,136.000 168.793 M265.362 168.826 C 267.981 169.056,270.598 169.488,271.176 169.788 C 271.754 170.087,272.941 170.460,273.814 170.616 C 274.686 170.773,275.670 171.127,276.000 171.403 C 276.330 171.679,277.027 172.036,277.550 172.195 C 283.493 174.011,290.517 182.788,292.279 190.600 C 293.420 195.665,292.803 205.319,291.205 207.400 C 291.036 207.620,290.768 208.224,290.609 208.741 C 289.907 211.028,285.999 216.198,283.465 218.191 C 280.548 220.487,278.840 221.600,278.236 221.600 C 277.946 221.600,277.250 221.960,276.691 222.400 C 276.131 222.840,275.378 223.200,275.017 223.200 C 274.656 223.200,273.808 223.486,273.132 223.835 C 269.875 225.519,260.344 226.140,253.600 225.107 C 249.565 224.489,248.366 224.104,245.121 222.384 C 244.307 221.953,243.390 221.600,243.083 221.600 C 242.775 221.600,242.198 221.240,241.800 220.800 C 241.402 220.360,240.860 220.000,240.596 220.000 C 240.333 220.000,238.828 218.695,237.252 217.100 C 233.199 212.996,233.200 212.997,233.200 212.328 C 233.200 211.996,232.840 211.398,232.400 211.000 C 231.960 210.602,231.600 210.033,231.600 209.737 C 231.600 209.440,231.240 208.525,230.800 207.704 C 230.360 206.884,230.000 205.827,230.000 205.356 C 230.000 204.886,229.720 203.713,229.377 202.750 C 228.525 200.358,228.523 193.222,229.373 190.850 C 229.718 189.887,230.000 188.841,230.000 188.525 C 230.000 187.775,231.997 183.553,232.674 182.871 C 232.964 182.581,233.200 182.131,233.200 181.871 C 233.201 181.054,238.508 175.754,240.700 174.381 C 241.855 173.657,242.800 172.936,242.800 172.777 C 242.800 172.619,243.412 172.374,244.160 172.234 C 244.908 172.094,245.724 171.732,245.974 171.431 C 246.224 171.130,247.091 170.759,247.900 170.608 C 248.710 170.456,249.864 170.077,250.464 169.767 C 251.374 169.296,253.397 169.019,260.000 168.459 C 260.330 168.431,262.743 168.596,265.362 168.826 M148.474 170.026 C 149.505 170.452,150.630 170.800,150.974 170.800 C 151.318 170.800,151.600 170.958,151.600 171.151 C 151.600 171.345,152.110 171.714,152.733 171.972 C 153.356 172.230,154.541 173.097,155.366 173.898 C 157.279 175.756,158.111 175.389,158.400 172.559 L 158.600 170.600 167.400 170.600 L 176.200 170.600 176.302 210.903 L 176.404 251.206 151.707 251.103 C 122.988 250.983,125.088 251.420,129.498 246.488 C 131.017 244.790,132.786 242.786,133.430 242.035 C 134.073 241.285,135.050 240.193,135.600 239.610 C 136.150 239.026,137.320 237.707,138.200 236.680 L 139.800 234.811 148.400 234.799 C 159.175 234.785,158.172 235.569,158.326 227.037 C 158.485 218.178,158.165 217.310,155.592 219.607 C 154.099 220.941,150.299 223.192,149.506 223.214 C 149.228 223.221,148.280 223.575,147.400 224.000 C 145.037 225.142,136.179 225.136,133.656 223.991 C 132.697 223.556,131.522 223.200,131.045 223.200 C 130.568 223.200,129.754 222.903,129.236 222.540 C 128.717 222.177,127.462 221.439,126.447 220.901 C 125.431 220.362,124.330 219.664,124.000 219.349 C 123.670 219.034,122.815 218.240,122.100 217.585 C 121.385 216.929,120.800 216.255,120.800 216.085 C 120.800 215.916,120.485 215.494,120.100 215.148 C 118.653 213.845,116.243 208.898,115.848 206.420 C 115.693 205.441,115.348 204.378,115.082 204.058 C 114.275 203.085,114.440 193.391,115.300 191.292 C 115.685 190.352,116.000 189.218,116.000 188.770 C 116.000 187.976,117.240 184.798,118.017 183.600 C 118.231 183.270,118.624 182.550,118.890 182.000 C 120.789 178.075,129.113 170.805,131.715 170.798 C 132.202 170.796,133.140 170.490,133.800 170.117 C 136.169 168.777,145.315 168.721,148.474 170.026 M78.000 170.251 C 77.450 170.598,76.329 171.718,75.508 172.741 C 70.380 179.131,69.600 179.380,69.600 174.629 C 69.600 169.717,70.161 169.963,59.264 170.093 L 50.200 170.200 50.090 196.600 C 50.029 211.120,50.078 223.408,50.199 223.907 L 50.419 224.815 59.498 224.707 L 68.577 224.600 69.083 223.600 C 69.467 222.841,69.590 218.448,69.594 205.347 L 69.600 188.093 70.500 187.852 C 71.679 187.536,87.347 187.528,88.167 187.843 C 88.731 188.059,88.800 189.982,88.800 205.417 C 88.800 215.710,88.958 223.165,89.190 223.774 L 89.580 224.800 98.600 224.800 L 107.620 224.800 108.046 223.700 C 108.334 222.956,108.420 216.327,108.313 203.200 L 108.155 183.800 107.033 181.207 C 104.540 175.443,99.905 171.456,94.200 170.169 C 90.628 169.364,79.318 169.421,78.000 170.251 M185.700 170.270 L 184.800 170.898 184.800 196.795 C 184.800 222.389,184.810 222.704,185.629 223.746 L 186.458 224.800 194.753 224.800 C 205.908 224.800,204.559 227.333,204.800 205.932 L 205.000 188.200 211.936 188.000 L 218.871 187.800 219.878 186.600 C 221.827 184.276,225.009 180.641,225.809 179.825 C 226.254 179.371,227.874 177.562,229.409 175.805 C 230.944 174.048,232.425 172.370,232.700 172.077 C 234.675 169.969,233.180 169.600,222.659 169.600 L 213.078 169.600 211.039 171.700 C 209.918 172.855,208.196 174.732,207.214 175.871 C 204.982 178.459,204.800 178.333,204.800 174.199 C 204.800 169.460,205.095 169.595,194.811 169.621 C 188.024 169.638,186.444 169.751,185.700 170.270 M96.264 171.259 C 96.669 171.614,97.384 172.022,97.852 172.165 C 98.321 172.307,99.131 172.778,99.652 173.210 C 102.944 175.943,104.400 177.359,104.400 177.826 C 104.400 178.120,104.657 178.504,104.971 178.680 C 105.286 178.856,106.006 180.418,106.571 182.151 L 107.600 185.302 107.594 204.151 C 107.591 214.518,107.443 223.229,107.265 223.508 C 107.017 223.899,104.961 223.991,98.371 223.908 L 89.800 223.800 89.600 205.885 C 89.429 190.545,89.314 187.916,88.800 187.591 C 87.970 187.067,70.557 187.088,69.574 187.614 C 68.827 188.014,68.800 188.634,68.800 205.338 C 68.800 218.566,68.682 222.809,68.299 223.332 C 67.849 223.947,66.931 224.006,59.199 223.908 L 50.600 223.800 50.497 197.292 L 50.394 170.785 59.497 170.892 L 68.600 171.000 68.800 175.168 C 69.076 180.913,69.183 180.882,76.282 173.048 L 78.765 170.309 87.147 170.460 C 94.149 170.587,95.650 170.718,96.264 171.259 M203.100 170.652 C 203.936 170.876,204.000 171.116,204.000 174.014 C 204.000 179.378,204.701 179.663,208.215 175.728 C 209.527 174.258,211.161 172.458,211.847 171.728 L 213.094 170.400 222.447 170.406 C 233.073 170.413,233.281 170.459,231.472 172.411 C 230.764 173.175,229.199 174.959,227.993 176.375 C 226.787 177.791,225.530 179.247,225.200 179.610 C 224.870 179.972,223.177 181.828,221.437 183.735 L 218.275 187.200 211.837 187.206 C 208.297 187.209,205.130 187.383,204.800 187.591 C 204.286 187.916,204.171 190.523,204.000 205.685 L 203.800 223.400 195.000 223.400 L 186.200 223.400 186.097 197.225 C 186.016 176.551,186.100 170.984,186.497 170.732 C 187.079 170.362,201.756 170.292,203.100 170.652 M142.000 184.874 C 128.726 191.311,131.995 209.600,146.421 209.600 C 150.921 209.600,156.800 206.518,156.800 204.160 C 156.800 203.899,157.053 203.588,157.362 203.470 C 157.672 203.351,158.046 202.700,158.195 202.023 C 158.344 201.346,158.744 200.234,159.084 199.552 C 159.763 198.190,159.594 194.234,158.823 193.463 C 158.590 193.230,158.400 192.780,158.400 192.461 C 158.400 191.519,155.789 187.879,154.341 186.804 C 150.355 183.843,145.645 183.106,142.000 184.874 M257.400 184.361 C 253.954 185.573,251.561 187.623,249.541 191.095 C 247.910 193.899,247.535 199.981,248.900 201.490 C 249.285 201.915,249.600 202.419,249.600 202.610 C 249.600 204.033,252.640 207.210,255.333 208.601 C 257.706 209.827,264.688 210.098,265.600 209.000 C 265.874 208.670,266.435 208.400,266.848 208.400 C 267.717 208.400,270.800 205.749,270.800 205.002 C 270.800 204.725,271.058 204.284,271.374 204.022 C 273.675 202.112,274.604 195.291,272.960 192.382 C 270.316 187.703,269.380 186.710,266.161 185.168 C 263.690 183.985,259.554 183.604,257.400 184.361 M151.439 185.835 C 158.243 188.841,160.629 197.472,156.392 203.751 C 149.676 213.702,134.400 208.986,134.400 196.961 C 134.400 187.973,143.228 182.208,151.439 185.835 M265.709 185.808 C 275.655 190.355,275.499 203.928,265.449 208.343 C 261.178 210.219,255.760 209.101,252.462 205.663 C 243.033 195.833,253.458 180.207,265.709 185.808 " stroke="none" fill="#8494c4" fill-rule="evenodd"></path><path id="path3" d="M299.500 136.032 C 298.840 136.416,298.800 138.917,298.800 179.601 C 298.800 224.803,298.788 224.488,300.549 224.961 C 301.986 225.346,317.761 225.212,318.400 224.809 C 318.902 224.492,319.019 222.770,319.119 214.215 C 319.185 208.597,319.381 204.000,319.556 204.000 C 319.731 204.000,320.757 204.986,321.837 206.191 C 322.917 207.395,324.056 208.482,324.369 208.604 C 324.682 208.727,323.760 207.627,322.321 206.158 C 318.732 202.499,318.800 202.355,318.800 213.650 C 318.800 226.071,319.861 224.801,309.486 224.794 C 300.647 224.787,300.410 224.752,299.660 223.326 C 298.965 222.007,299.005 137.620,299.700 136.669 C 300.151 136.052,301.105 135.995,309.400 136.092 L 318.600 136.200 318.804 161.800 L 319.009 187.400 319.104 161.980 C 319.177 142.634,319.085 136.445,318.720 136.080 C 318.105 135.465,300.549 135.421,299.500 136.032 M254.600 167.802 L 253.000 168.343 255.200 168.072 C 258.084 167.716,264.031 167.725,266.800 168.090 L 269.000 168.380 267.000 167.798 C 264.446 167.054,256.805 167.057,254.600 167.802 M140.000 168.047 C 138.983 168.227,139.393 168.309,141.500 168.347 C 143.095 168.376,144.400 168.329,144.400 168.242 C 144.400 167.936,141.384 167.803,140.000 168.047 M133.289 169.065 C 132.568 169.420,132.057 169.790,132.154 169.888 C 132.252 169.985,132.752 169.833,133.266 169.551 C 133.780 169.268,135.010 168.917,136.000 168.772 L 137.800 168.507 136.200 168.463 C 135.320 168.438,134.010 168.709,133.289 169.065 M147.143 168.796 C 148.101 169.003,149.140 169.385,149.452 169.643 C 149.764 169.902,150.109 170.024,150.219 169.914 C 150.671 169.462,149.195 168.789,147.360 168.611 L 145.400 168.420 147.143 168.796 M249.800 168.694 C 248.937 168.912,247.218 170.000,247.737 170.000 C 247.911 170.000,248.409 169.809,248.845 169.576 C 249.281 169.343,250.394 169.002,251.319 168.820 C 252.638 168.559,252.742 168.488,251.800 168.490 C 251.140 168.492,250.240 168.584,249.800 168.694 M272.746 169.416 C 274.453 170.157,274.759 170.156,273.776 169.413 C 273.349 169.090,272.640 168.827,272.200 168.828 C 271.646 168.830,271.814 169.011,272.746 169.416 M76.967 170.700 C 76.089 171.525,75.106 172.582,74.783 173.049 C 71.347 178.020,70.016 178.219,70.006 173.762 C 69.997 169.465,70.338 169.600,59.492 169.600 C 54.517 169.600,50.364 169.735,50.261 169.900 C 50.159 170.065,54.179 170.149,59.195 170.086 C 70.165 169.949,69.600 169.702,69.600 174.629 C 69.600 179.380,70.424 179.114,75.508 172.725 C 78.001 169.592,78.344 169.498,86.693 169.659 C 90.698 169.737,93.665 169.678,93.287 169.528 C 92.909 169.379,89.442 169.244,85.582 169.228 L 78.565 169.200 76.967 170.700 M158.014 169.974 C 157.786 170.399,157.621 171.254,157.646 171.874 C 157.679 172.661,157.744 172.759,157.862 172.200 C 158.475 169.301,157.406 169.600,167.146 169.600 C 175.095 169.600,175.935 169.665,176.538 170.331 C 177.653 171.564,177.544 250.988,176.426 251.586 C 175.247 252.217,127.514 252.154,126.880 251.520 C 125.487 250.127,126.133 249.127,134.190 240.200 C 138.173 235.787,140.174 233.323,137.559 236.052 C 134.348 239.402,129.821 244.406,128.534 246.029 C 127.910 246.815,127.085 247.773,126.700 248.157 C 125.730 249.127,125.774 251.451,126.774 251.986 C 128.498 252.909,175.742 252.518,176.946 251.571 L 178.000 250.742 178.000 210.841 L 178.000 170.939 177.074 170.070 C 175.712 168.790,158.693 168.704,158.014 169.974 M185.267 170.023 L 184.383 170.847 184.492 197.403 C 184.578 218.524,184.706 224.067,185.119 224.480 C 186.531 225.894,204.800 225.272,204.800 223.810 C 204.800 223.327,204.634 223.366,204.000 224.000 C 203.251 224.749,202.667 224.800,194.829 224.800 L 186.458 224.800 185.629 223.746 C 184.810 222.704,184.800 222.389,184.800 196.792 L 184.800 170.892 185.786 170.246 C 187.222 169.305,202.573 169.285,203.911 170.223 C 204.849 170.879,205.137 170.497,204.320 169.680 C 203.364 168.724,186.332 169.031,185.267 170.023 M212.350 169.903 C 211.773 170.286,210.333 171.761,209.150 173.180 C 207.968 174.599,206.595 176.166,206.100 176.662 L 205.200 177.564 205.168 176.682 C 205.151 176.197,205.044 176.031,204.931 176.313 C 204.180 178.183,205.339 178.001,207.113 175.971 C 208.151 174.782,209.918 172.863,211.039 171.705 L 213.078 169.600 222.659 169.600 C 233.180 169.600,234.675 169.969,232.700 172.077 C 229.631 175.352,226.798 178.829,227.507 178.450 C 227.998 178.187,228.401 177.843,228.402 177.686 C 228.403 177.529,228.988 176.760,229.702 175.977 C 235.924 169.157,235.966 169.199,222.867 169.203 C 214.535 169.205,213.274 169.289,212.350 169.903 M339.338 169.506 C 339.083 169.668,344.373 169.800,351.094 169.800 C 364.547 169.800,365.503 169.974,363.180 171.995 L 362.200 172.847 363.300 172.178 C 364.507 171.443,364.604 171.129,363.986 169.974 C 363.555 169.169,340.555 168.732,339.338 169.506 M95.400 170.394 C 96.855 170.771,99.114 171.886,100.193 172.759 C 100.942 173.364,100.954 173.359,100.418 172.669 C 99.649 171.678,96.241 169.990,95.113 170.041 C 94.362 170.075,94.413 170.137,95.400 170.394 M129.200 170.800 C 128.693 171.240,128.463 171.600,128.690 171.600 C 128.917 171.600,129.317 171.341,129.580 171.024 C 129.843 170.707,130.450 170.372,130.929 170.278 C 131.777 170.113,131.777 170.107,130.961 170.054 C 130.500 170.025,129.707 170.360,129.200 170.800 M151.699 170.578 C 152.303 170.893,153.023 171.266,153.299 171.406 C 153.574 171.546,153.375 171.287,152.856 170.830 C 152.336 170.374,151.616 170.001,151.256 170.002 C 150.852 170.004,151.022 170.225,151.699 170.578 M245.389 170.546 C 244.955 170.846,244.178 171.224,243.662 171.385 C 242.534 171.737,239.339 173.852,238.926 174.519 C 238.764 174.781,239.570 174.322,240.717 173.498 C 241.864 172.674,242.936 171.994,243.101 171.987 C 243.735 171.961,247.367 170.007,246.789 170.004 C 246.453 170.002,245.823 170.246,245.389 170.546 M275.200 170.288 C 275.530 170.412,276.970 171.138,278.400 171.903 C 280.420 172.982,280.830 173.103,280.238 172.446 C 279.819 171.981,279.276 171.600,279.032 171.600 C 278.788 171.600,277.916 171.240,277.096 170.800 C 276.275 170.360,275.377 170.014,275.101 170.032 C 274.793 170.051,274.831 170.150,275.200 170.288 M49.789 197.200 C 49.789 211.830,49.839 217.815,49.900 210.500 C 49.961 203.185,49.961 191.215,49.900 183.900 C 49.839 176.585,49.789 182.570,49.789 197.200 M126.452 172.300 C 124.153 174.067,120.000 178.153,120.000 178.649 C 120.000 178.952,119.852 179.200,119.671 179.200 C 119.238 179.200,117.330 182.129,117.007 183.290 C 116.868 183.790,117.341 183.210,118.058 182.000 C 118.775 180.790,119.569 179.620,119.821 179.400 C 120.074 179.180,120.791 178.309,121.415 177.465 C 122.039 176.620,123.794 174.955,125.315 173.765 C 126.837 172.574,127.920 171.600,127.722 171.600 C 127.525 171.600,126.953 171.915,126.452 172.300 M335.000 172.869 C 333.837 174.076,333.833 174.094,334.866 173.433 C 335.453 173.059,336.032 172.493,336.154 172.176 C 336.455 171.392,336.377 171.438,335.000 172.869 M156.398 173.911 C 156.837 174.815,157.629 174.791,157.568 173.876 C 157.547 173.554,157.469 173.568,157.328 173.921 C 157.171 174.313,156.975 174.263,156.538 173.721 C 156.004 173.060,155.992 173.075,156.398 173.911 M282.186 174.089 C 282.839 174.590,284.294 175.810,285.421 176.800 C 287.302 178.453,287.279 178.414,285.144 176.319 C 283.866 175.065,282.411 173.845,281.910 173.608 C 281.274 173.307,281.357 173.452,282.186 174.089 M357.791 176.859 C 355.596 178.871,352.540 181.700,351.000 183.145 C 349.460 184.590,347.253 186.634,346.096 187.686 C 344.938 188.739,344.128 189.598,344.296 189.595 C 344.463 189.592,345.803 188.467,347.273 187.095 C 348.744 185.723,351.437 183.250,353.259 181.600 C 359.164 176.251,362.365 173.200,362.071 173.200 C 361.912 173.200,359.987 174.846,357.791 176.859 M332.000 175.897 C 331.230 176.715,330.960 177.120,331.400 176.797 C 332.517 175.975,334.019 174.399,333.681 174.404 C 333.526 174.407,332.770 175.078,332.000 175.897 M103.200 174.936 C 103.200 175.094,103.920 176.134,104.800 177.248 C 105.680 178.361,106.414 179.571,106.432 179.936 C 106.453 180.383,106.531 180.430,106.672 180.079 C 106.786 179.793,106.367 178.803,105.740 177.879 C 104.420 175.935,103.200 174.521,103.200 174.936 M236.806 175.942 C 233.971 178.958,232.401 180.877,232.412 181.313 C 232.419 181.581,232.621 181.440,232.862 181.000 C 233.102 180.560,234.487 178.985,235.939 177.500 C 237.391 176.015,238.403 174.819,238.189 174.842 C 237.975 174.865,237.353 175.360,236.806 175.942 M225.066 180.675 C 224.370 181.486,223.432 182.521,222.983 182.975 C 222.534 183.429,221.476 184.700,220.634 185.800 C 219.033 187.889,219.891 187.021,223.352 183.050 C 224.478 181.758,225.749 180.363,226.175 179.950 C 226.602 179.538,226.812 179.200,226.641 179.200 C 226.471 179.200,225.762 179.864,225.066 180.675 M288.285 180.243 C 288.721 180.879,289.506 182.064,290.030 182.876 C 290.554 183.687,291.054 184.280,291.141 184.192 C 291.347 183.986,288.518 179.720,287.936 179.361 C 287.692 179.209,287.849 179.606,288.285 180.243 M324.391 183.228 C 322.101 185.444,319.953 187.410,319.617 187.598 C 319.281 187.786,319.136 188.069,319.293 188.226 C 319.451 188.384,321.699 186.420,324.290 183.862 C 326.880 181.304,328.900 179.208,328.777 179.205 C 328.654 179.202,326.680 181.013,324.391 183.228 M107.304 181.959 C 107.645 182.870,107.843 183.068,107.938 182.594 C 108.015 182.215,107.791 181.620,107.442 181.271 C 106.863 180.691,106.851 180.751,107.304 181.959 M230.330 184.574 C 229.962 185.067,229.559 186.174,229.435 187.035 L 229.209 188.600 229.630 187.248 C 229.861 186.504,230.333 185.464,230.679 184.935 C 231.492 183.695,231.207 183.401,230.330 184.574 M108.128 186.400 C 108.128 187.830,108.201 188.415,108.289 187.700 C 108.378 186.985,108.378 185.815,108.289 185.100 C 108.201 184.385,108.128 184.970,108.128 186.400 M116.032 185.139 C 115.379 186.360,115.514 186.700,116.241 185.663 C 116.593 185.160,116.788 184.654,116.673 184.540 C 116.559 184.425,116.270 184.695,116.032 185.139 M140.895 186.271 C 139.528 187.080,138.491 187.824,138.592 187.925 C 138.693 188.026,139.272 187.769,139.880 187.354 C 140.488 186.939,141.798 186.210,142.792 185.733 C 143.787 185.257,144.326 184.852,143.991 184.833 C 143.656 184.815,142.263 185.462,140.895 186.271 M149.800 185.600 C 150.680 186.025,151.568 186.379,151.774 186.386 C 151.980 186.394,153.060 187.151,154.174 188.069 L 156.200 189.738 154.800 188.230 C 154.030 187.400,152.433 186.289,151.250 185.761 C 148.698 184.620,147.496 184.487,149.800 185.600 M255.965 185.733 C 253.248 187.017,249.321 191.055,250.066 191.799 C 250.167 191.901,250.759 191.180,251.379 190.198 C 252.725 188.069,254.326 186.806,256.900 185.844 C 257.945 185.453,258.800 185.059,258.800 184.967 C 258.800 184.612,257.724 184.902,255.965 185.733 M264.995 185.862 C 268.659 187.437,271.071 189.928,271.813 192.904 C 271.965 193.511,272.249 194.106,272.444 194.227 C 272.640 194.348,272.800 195.596,272.800 197.000 C 272.800 198.404,272.640 199.652,272.444 199.773 C 272.249 199.894,271.967 200.489,271.819 201.096 C 270.484 206.562,261.755 210.804,257.200 208.200 C 256.650 207.886,255.930 207.637,255.600 207.647 C 253.560 207.708,258.568 209.180,260.849 209.190 C 274.074 209.242,277.752 191.309,265.650 185.782 C 264.468 185.242,263.298 184.807,263.050 184.816 C 262.803 184.825,263.678 185.296,264.995 185.862 M291.213 184.854 C 291.206 184.994,291.463 185.714,291.784 186.454 C 292.215 187.447,292.373 187.584,292.384 186.976 C 292.398 186.262,291.247 184.177,291.213 184.854 M74.878 187.898 C 77.231 187.969,81.191 187.969,83.678 187.899 C 86.165 187.829,84.240 187.771,79.400 187.770 C 74.560 187.770,72.525 187.828,74.878 187.898 M69.594 205.300 C 69.590 218.439,69.467 222.841,69.083 223.600 L 68.577 224.600 59.617 224.708 C 52.731 224.791,50.574 224.698,50.298 224.308 C 50.027 223.925,49.979 223.948,50.103 224.400 C 50.241 224.906,51.654 225.017,59.145 225.108 C 68.856 225.225,69.441 225.115,69.789 223.095 C 70.134 221.092,70.239 188.000,69.900 188.000 C 69.735 188.000,69.597 195.785,69.594 205.300 M88.584 205.400 C 88.584 215.080,88.636 218.983,88.700 214.073 C 88.763 209.163,88.763 201.243,88.700 196.473 C 88.636 191.703,88.584 195.720,88.584 205.400 M137.087 189.032 C 136.550 189.749,136.518 189.930,136.956 189.761 C 137.276 189.639,137.646 189.256,137.778 188.912 C 138.152 187.937,137.869 187.986,137.087 189.032 M204.983 188.500 C 204.877 188.775,204.838 196.650,204.896 206.000 L 205.000 223.000 205.200 205.500 C 205.310 195.875,205.349 188.000,205.287 188.000 C 205.226 188.000,205.089 188.225,204.983 188.500 M114.465 189.817 C 114.209 190.378,114.009 191.234,114.019 191.719 C 114.031 192.281,114.259 191.971,114.647 190.861 C 115.321 188.937,115.195 188.214,114.465 189.817 M228.390 189.826 C 228.176 190.390,228.024 191.515,228.053 192.326 C 228.106 193.786,228.110 193.782,228.392 192.000 C 228.549 191.010,228.814 189.885,228.981 189.500 C 229.149 189.115,229.172 188.800,229.033 188.800 C 228.894 188.800,228.605 189.262,228.390 189.826 M292.990 190.200 C 293.160 190.640,293.444 192.080,293.621 193.400 L 293.943 195.800 293.853 193.101 C 293.798 191.455,293.552 190.207,293.222 189.901 C 292.778 189.488,292.737 189.541,292.990 190.200 M156.000 190.249 C 156.000 190.454,156.360 190.930,156.800 191.307 C 157.240 191.684,157.600 191.842,157.600 191.658 C 157.600 191.474,157.240 190.998,156.800 190.600 C 156.360 190.202,156.000 190.044,156.000 190.249 M135.457 191.700 L 134.742 193.000 135.571 192.056 C 136.287 191.240,136.650 190.400,136.286 190.400 C 136.224 190.400,135.851 190.985,135.457 191.700 M340.670 192.729 C 338.425 195.008,338.461 195.293,341.351 198.200 C 342.444 199.300,343.083 199.844,342.770 199.410 C 342.456 198.975,341.643 198.052,340.961 197.358 C 338.946 195.305,338.948 194.877,340.987 192.951 C 342.574 191.452,343.088 190.800,342.685 190.800 C 342.622 190.800,341.715 191.668,340.670 192.729 M157.800 196.779 C 157.800 201.046,158.091 201.487,158.575 197.953 C 158.709 196.977,158.590 195.359,158.308 194.302 C 157.813 192.452,157.800 192.514,157.800 196.779 M249.232 193.139 C 248.995 193.584,248.807 194.274,248.816 194.674 C 248.825 195.108,249.068 194.854,249.422 194.039 C 250.070 192.545,249.923 191.848,249.232 193.139 M113.751 198.000 C 113.751 200.530,113.816 201.565,113.896 200.300 C 113.975 199.035,113.975 196.965,113.896 195.700 C 113.816 194.435,113.751 195.470,113.751 198.000 M134.542 197.000 C 134.541 198.980,134.608 199.840,134.692 198.912 C 134.776 197.984,134.777 196.364,134.695 195.312 C 134.612 194.260,134.543 195.020,134.542 197.000 M248.832 198.850 C 248.736 200.810,253.253 207.640,254.608 207.584 C 254.823 207.575,254.426 207.076,253.724 206.474 C 252.552 205.470,250.400 202.666,250.400 202.143 C 250.400 202.021,250.146 201.354,249.836 200.660 C 249.526 199.967,249.180 199.130,249.067 198.800 C 248.898 198.302,248.858 198.310,248.832 198.850 M293.667 200.274 C 293.630 201.415,293.421 202.820,293.201 203.397 C 292.956 204.043,292.950 204.355,293.186 204.209 C 293.729 203.873,294.087 201.644,293.896 199.782 C 293.751 198.360,293.728 198.410,293.667 200.274 M228.056 201.424 C 228.020 202.745,228.219 203.716,228.633 204.224 C 229.256 204.989,229.261 204.989,228.968 204.200 C 228.805 203.760,228.546 202.500,228.392 201.400 L 228.113 199.400 228.056 201.424 M343.600 200.342 C 343.600 200.515,344.005 201.022,344.500 201.470 C 344.995 201.918,347.594 204.516,350.275 207.242 C 355.568 212.624,360.329 217.227,358.878 215.560 C 356.948 213.341,343.600 200.046,343.600 200.342 M134.800 200.959 C 134.800 201.428,136.759 204.328,137.284 204.635 C 137.568 204.801,137.506 204.592,137.147 204.169 C 136.788 203.746,136.376 203.011,136.232 202.536 C 135.983 201.717,134.800 200.414,134.800 200.959 M156.391 203.102 C 155.846 203.901,154.680 205.275,153.800 206.156 C 152.220 207.738,152.217 207.745,153.600 206.729 C 154.911 205.765,157.825 202.092,157.520 201.787 C 157.444 201.711,156.936 202.303,156.391 203.102 M114.018 204.424 C 114.008 204.986,114.264 205.796,114.587 206.224 C 115.327 207.201,115.331 206.997,114.612 205.000 C 114.134 203.675,114.032 203.576,114.018 204.424 M138.575 206.315 C 139.221 207.022,139.903 207.600,140.090 207.600 C 140.477 207.600,139.400 206.462,138.200 205.603 C 137.760 205.288,137.929 205.609,138.575 206.315 M291.728 207.900 C 291.314 209.228,291.325 209.311,291.830 208.624 C 292.308 207.973,292.639 206.400,292.298 206.400 C 292.242 206.400,291.985 207.075,291.728 207.900 M141.200 207.964 C 141.530 208.150,142.250 208.423,142.800 208.568 L 143.800 208.833 142.800 208.231 C 142.250 207.899,141.530 207.627,141.200 207.626 C 140.667 207.625,140.667 207.662,141.200 207.964 M150.000 208.200 C 148.694 208.947,149.151 208.955,150.854 208.216 C 151.594 207.894,151.930 207.631,151.600 207.630 C 151.270 207.629,150.550 207.886,150.000 208.200 M229.603 208.051 C 229.601 208.409,229.870 208.926,230.200 209.200 C 230.530 209.474,230.800 209.911,230.800 210.171 C 230.800 210.432,231.250 211.255,231.800 212.000 C 232.350 212.745,232.800 213.165,232.800 212.932 C 232.800 212.699,232.440 212.050,232.000 211.491 C 231.560 210.931,231.199 210.322,231.197 210.137 C 231.196 209.952,230.837 209.260,230.400 208.600 C 229.888 207.828,229.604 207.632,229.603 208.051 M145.100 209.089 C 145.815 209.178,146.985 209.178,147.700 209.089 C 148.415 209.001,147.830 208.928,146.400 208.928 C 144.970 208.928,144.385 209.001,145.100 209.089 M115.600 209.675 C 115.600 210.020,115.870 210.526,116.200 210.800 C 116.963 211.434,116.956 210.839,116.187 209.824 C 115.717 209.202,115.600 209.172,115.600 209.675 M326.661 211.194 C 327.727 212.290,328.737 213.190,328.905 213.194 C 329.073 213.197,328.306 212.300,327.200 211.200 C 326.094 210.100,325.084 209.200,324.955 209.200 C 324.827 209.200,325.594 210.097,326.661 211.194 M290.294 210.903 L 289.588 212.200 290.394 211.256 C 291.080 210.452,291.446 209.594,291.100 209.603 C 291.045 209.604,290.682 210.189,290.294 210.903 M117.020 212.400 C 117.693 214.826,125.241 222.400,126.987 222.400 C 127.270 222.400,127.726 222.670,128.000 223.000 C 128.274 223.330,128.701 223.594,128.949 223.587 C 129.564 223.569,127.641 222.000,127.004 222.000 C 125.568 222.000,119.845 216.507,117.837 213.200 C 117.171 212.105,116.852 211.792,117.020 212.400 M289.200 212.725 C 289.200 212.904,287.925 214.434,286.367 216.125 C 283.219 219.541,282.883 220.306,285.881 217.232 C 289.130 213.900,290.222 212.400,289.400 212.400 C 289.290 212.400,289.200 212.546,289.200 212.725 M233.827 215.000 C 234.414 215.770,235.038 216.400,235.213 216.400 C 235.388 216.400,234.974 215.770,234.292 215.000 C 233.611 214.230,232.987 213.600,232.906 213.600 C 232.825 213.600,233.240 214.230,233.827 215.000 M329.211 213.676 C 329.205 213.829,329.965 214.746,330.900 215.716 C 341.236 226.434,338.286 225.200,353.570 225.200 C 368.055 225.200,368.434 224.973,362.916 219.600 C 361.222 217.950,360.487 217.348,361.283 218.263 C 362.080 219.178,363.404 220.543,364.226 221.296 C 365.486 222.450,365.678 222.837,365.447 223.754 L 365.174 224.842 352.534 224.721 L 339.894 224.600 334.558 219.000 C 331.623 215.920,329.217 213.524,329.211 213.676 M237.217 218.440 C 239.113 220.277,241.993 222.400,242.590 222.400 C 242.781 222.400,243.221 222.633,243.569 222.919 C 244.552 223.727,248.729 225.294,249.293 225.067 C 249.601 224.943,249.522 224.851,249.092 224.832 C 247.180 224.746,239.308 220.304,237.400 218.234 C 237.180 217.995,236.640 217.548,236.200 217.240 C 235.760 216.932,236.217 217.472,237.217 218.440 M155.053 220.814 C 153.982 221.686,153.232 222.400,153.385 222.400 C 153.539 222.400,154.443 221.763,155.394 220.984 C 156.597 219.998,157.185 219.724,157.330 220.084 C 157.461 220.412,157.548 220.345,157.568 219.900 C 157.614 218.897,157.242 219.032,155.053 220.814 M282.600 219.628 C 282.045 220.167,279.664 221.646,277.840 222.586 C 277.001 223.018,276.525 223.442,276.781 223.527 C 277.037 223.612,277.565 223.394,277.955 223.041 C 278.344 222.688,278.804 222.400,278.976 222.400 C 279.499 222.400,283.200 219.888,283.200 219.533 C 283.200 219.121,283.107 219.136,282.600 219.628 M157.758 226.600 C 157.758 229.680,157.821 230.887,157.897 229.282 C 157.973 227.678,157.973 225.158,157.896 223.682 C 157.819 222.207,157.757 223.520,157.758 226.600 M150.400 223.631 C 149.190 224.248,147.750 224.788,147.200 224.831 C 146.372 224.896,146.340 224.937,147.013 225.071 C 147.884 225.244,152.154 223.521,152.587 222.821 C 152.730 222.590,152.792 222.424,152.724 222.454 C 152.656 222.484,151.610 223.014,150.400 223.631 M88.825 223.857 C 88.788 225.130,89.303 225.200,98.753 225.200 C 107.640 225.200,108.434 225.070,108.375 223.620 C 108.359 223.240,108.209 223.348,107.988 223.900 C 107.627 224.796,107.586 224.800,98.600 224.800 C 89.614 224.800,89.573 224.796,89.212 223.900 C 88.855 223.010,88.850 223.009,88.825 223.857 M132.123 224.641 C 132.741 224.976,133.641 225.173,134.123 225.079 C 134.863 224.936,134.832 224.900,133.924 224.854 C 133.332 224.825,132.736 224.620,132.600 224.400 C 132.464 224.180,132.048 224.007,131.676 224.016 C 131.224 224.027,131.372 224.234,132.123 224.641 M274.287 224.246 C 274.151 224.382,273.446 224.633,272.720 224.805 C 271.572 225.077,271.533 225.123,272.424 225.159 C 272.986 225.182,273.796 224.936,274.224 224.613 C 274.651 224.290,274.895 224.020,274.767 224.013 C 274.638 224.006,274.422 224.111,274.287 224.246 M138.716 225.497 C 140.099 225.575,142.259 225.574,143.516 225.495 C 144.772 225.416,143.640 225.352,141.000 225.353 C 138.360 225.353,137.332 225.418,138.716 225.497 M267.600 225.859 C 265.638 226.491,254.532 226.459,253.000 225.817 C 252.328 225.536,252.283 225.571,252.719 226.041 C 253.643 227.037,265.595 227.039,268.600 226.045 C 269.920 225.608,270.640 225.257,270.200 225.265 C 269.760 225.273,268.590 225.540,267.600 225.859 M157.200 233.133 C 157.200 233.472,154.810 233.625,148.500 233.692 L 139.800 233.783 148.372 233.900 C 156.360 234.008,158.334 233.800,157.473 232.940 C 157.323 232.790,157.200 232.877,157.200 233.133 " stroke="none" fill="#5a6cb4" fill-rule="evenodd"></path><path id="path4" d="M299.200 135.718 L 298.200 136.224 298.086 179.212 C 297.964 225.700,297.927 224.456,299.425 225.139 C 300.673 225.707,317.912 225.770,318.800 225.209 C 319.302 224.892,319.421 223.189,319.525 214.827 C 319.648 205.049,319.668 204.836,320.425 205.309 C 320.851 205.575,321.200 205.915,321.200 206.065 C 321.200 206.214,321.965 207.118,322.900 208.072 C 326.698 211.949,333.762 219.589,334.090 220.175 C 334.282 220.519,334.701 220.800,335.020 220.800 C 335.339 220.800,335.600 221.001,335.600 221.246 C 335.600 221.492,336.522 222.572,337.648 223.646 L 339.697 225.600 352.568 225.600 C 366.448 225.600,366.400 225.607,366.400 223.468 C 366.400 222.374,361.085 216.382,360.571 216.896 C 360.481 216.986,361.665 218.306,363.203 219.830 C 365.967 222.569,366.515 223.725,365.520 224.720 C 365.002 225.238,343.286 225.437,340.833 224.947 C 339.932 224.766,338.558 223.650,336.083 221.086 C 334.167 219.102,331.835 216.685,330.900 215.716 C 329.965 214.746,329.200 213.903,329.200 213.842 C 329.200 213.608,319.715 204.000,319.483 204.000 C 319.349 204.000,319.185 208.597,319.119 214.215 C 319.019 222.770,318.902 224.492,318.400 224.809 C 317.761 225.212,301.986 225.346,300.549 224.961 C 298.788 224.488,298.800 224.803,298.800 179.595 C 298.800 137.327,298.816 136.420,299.574 136.014 C 300.722 135.399,318.099 135.459,318.720 136.080 C 319.083 136.443,319.200 142.764,319.200 162.080 C 319.200 176.116,319.353 187.600,319.540 187.600 C 319.886 187.600,323.252 184.420,332.584 175.278 C 339.265 168.733,337.785 169.200,351.854 169.200 L 363.617 169.200 364.056 170.163 C 364.501 171.139,361.988 173.912,355.831 179.242 C 354.968 179.989,353.596 181.230,352.783 182.000 C 351.970 182.770,349.821 184.750,348.008 186.400 C 340.495 193.238,339.164 194.641,339.461 195.415 C 339.924 196.621,358.400 215.021,358.400 214.276 C 358.400 213.904,358.199 213.600,357.954 213.600 C 357.439 213.600,353.600 209.678,353.600 209.152 C 353.600 208.958,353.434 208.800,353.232 208.800 C 352.746 208.800,349.366 205.411,349.062 204.618 C 348.932 204.278,348.648 204.000,348.431 204.000 C 347.921 204.000,346.188 202.268,345.871 201.440 C 345.736 201.088,345.349 200.800,345.013 200.800 C 344.676 200.800,344.400 200.542,344.400 200.227 C 344.400 199.912,344.040 199.540,343.600 199.400 C 343.160 199.260,342.800 198.992,342.800 198.805 C 342.800 198.617,342.080 197.736,341.200 196.847 C 339.394 195.023,339.255 194.563,340.400 194.200 C 340.840 194.060,341.200 193.688,341.200 193.373 C 341.200 193.058,341.487 192.800,341.837 192.800 C 342.188 192.800,342.569 192.440,342.684 192.000 C 342.799 191.560,343.053 191.200,343.248 191.200 C 343.443 191.200,344.547 190.318,345.701 189.240 C 346.856 188.162,349.689 185.597,351.997 183.540 C 354.305 181.483,357.519 178.495,359.139 176.900 C 360.759 175.305,362.233 174.000,362.415 174.000 C 362.597 174.000,362.854 173.659,362.986 173.243 C 363.118 172.827,363.581 172.394,364.013 172.281 C 364.894 172.050,365.083 170.475,364.386 169.174 C 363.990 168.434,363.425 168.400,351.686 168.403 C 337.335 168.406,339.500 167.709,332.413 174.600 C 329.698 177.240,325.704 181.118,323.538 183.217 L 319.600 187.034 319.600 161.746 C 319.600 139.289,319.530 136.387,318.971 135.829 C 318.138 134.995,300.821 134.898,299.200 135.718 M139.200 167.262 C 138.650 167.514,137.390 167.850,136.400 168.007 L 134.600 168.293 136.400 168.324 C 137.390 168.340,138.916 168.227,139.792 168.072 C 141.921 167.694,149.156 168.636,150.001 169.401 C 150.365 169.730,150.909 170.000,151.210 170.000 C 151.899 170.000,154.648 171.858,156.059 173.278 C 157.251 174.478,157.600 174.175,157.600 171.941 C 157.600 169.158,157.451 169.200,167.344 169.200 C 176.147 169.200,176.272 169.212,177.130 170.126 L 178.000 171.052 178.000 210.897 L 178.000 250.742 176.946 251.571 C 175.906 252.389,175.569 252.400,151.720 252.400 C 125.814 252.400,126.000 252.415,126.000 250.362 C 126.000 249.658,125.833 249.256,125.600 249.400 C 124.871 249.850,125.185 251.294,126.221 252.254 L 127.241 253.200 151.778 253.200 L 176.315 253.200 177.563 252.034 L 178.811 250.868 178.706 210.666 L 178.600 170.464 177.630 169.432 L 176.661 168.400 167.354 168.400 C 157.066 168.400,157.634 168.238,157.251 171.281 L 157.000 173.281 155.879 172.240 C 155.263 171.668,154.517 171.200,154.222 171.200 C 153.927 171.200,153.588 170.947,153.470 170.638 C 153.351 170.328,152.714 169.957,152.055 169.812 C 151.395 169.667,150.650 169.302,150.400 169.000 C 150.149 168.698,148.922 168.327,147.672 168.176 C 146.422 168.025,145.187 167.732,144.928 167.525 C 144.185 166.932,140.305 166.754,139.200 167.262 M253.237 167.355 C 252.983 167.661,251.746 168.037,250.488 168.192 C 249.230 168.346,247.639 168.816,246.953 169.236 C 246.267 169.656,245.434 170.000,245.102 170.000 C 244.770 170.000,244.274 170.270,244.000 170.600 C 243.726 170.930,243.178 171.200,242.782 171.200 C 242.386 171.200,241.527 171.650,240.873 172.200 C 240.219 172.750,239.569 173.200,239.429 173.200 C 239.288 173.200,238.543 173.830,237.773 174.600 C 237.003 175.370,236.199 176.000,235.987 176.000 C 235.774 176.000,235.600 176.173,235.600 176.385 C 235.600 176.596,234.880 177.482,234.000 178.353 C 233.120 179.224,232.400 180.103,232.400 180.307 C 232.400 180.510,232.040 181.002,231.600 181.400 C 231.160 181.798,230.800 182.416,230.800 182.773 C 230.800 183.130,230.440 183.730,230.000 184.107 C 229.526 184.513,229.219 185.242,229.246 185.896 C 229.280 186.684,229.349 186.782,229.488 186.237 C 229.595 185.817,230.271 184.637,230.990 183.614 C 231.709 182.592,232.411 181.405,232.550 180.977 C 232.803 180.197,237.321 175.349,238.492 174.600 C 238.837 174.380,239.956 173.615,240.979 172.900 C 242.003 172.185,242.946 171.600,243.076 171.600 C 243.288 171.600,244.535 171.055,248.200 169.358 C 248.860 169.053,250.030 168.700,250.800 168.574 C 251.570 168.449,253.287 168.072,254.616 167.736 C 258.978 166.636,270.409 167.647,273.662 169.421 C 275.171 170.244,275.886 170.138,274.754 169.259 C 274.229 168.851,272.826 168.391,271.636 168.237 C 270.445 168.082,269.100 167.695,268.647 167.378 C 267.469 166.553,253.920 166.533,253.237 167.355 M50.014 169.174 C 49.468 170.194,49.485 171.240,50.032 170.300 C 50.401 169.666,51.296 169.600,59.558 169.600 C 70.370 169.600,69.996 169.449,70.006 173.831 C 70.016 178.215,71.365 177.994,74.783 173.049 C 75.106 172.582,76.097 171.516,76.985 170.679 L 78.600 169.158 86.000 169.331 C 90.070 169.426,94.030 169.608,94.800 169.735 C 95.570 169.863,95.840 169.863,95.400 169.735 C 94.960 169.608,94.245 169.255,93.811 168.952 C 93.211 168.532,91.290 168.400,85.787 168.400 L 78.552 168.400 76.656 170.300 C 75.614 171.345,73.869 173.167,72.780 174.348 L 70.800 176.497 70.800 173.484 C 70.800 170.611,70.743 170.423,69.569 169.436 L 68.339 168.400 59.383 168.400 C 50.939 168.400,50.405 168.444,50.014 169.174 M132.183 168.828 C 132.037 169.063,131.532 169.412,131.059 169.603 C 130.372 169.880,130.340 169.954,130.901 169.975 C 131.287 169.989,132.275 169.640,133.096 169.200 C 134.518 168.438,134.538 168.400,133.518 168.400 C 132.929 168.400,132.328 168.593,132.183 168.828 M184.800 169.200 C 184.016 169.984,184.000 170.533,184.000 197.177 L 184.000 224.355 184.889 224.977 C 185.631 225.497,187.302 225.600,195.009 225.600 C 204.874 225.600,205.247 225.527,205.146 223.620 C 205.094 222.649,205.083 222.645,204.915 223.522 C 204.813 224.053,204.294 224.612,203.687 224.843 C 202.075 225.456,185.776 225.137,185.119 224.480 C 184.706 224.067,184.578 218.524,184.492 197.403 L 184.383 170.847 185.267 170.023 C 186.104 169.244,186.620 169.200,194.995 169.200 C 205.145 169.200,204.800 169.079,204.800 172.630 C 204.800 173.989,204.907 175.637,205.039 176.293 L 205.277 177.486 206.139 176.623 C 206.612 176.149,207.968 174.599,209.150 173.180 C 212.619 169.018,211.971 169.206,222.867 169.203 C 235.683 169.199,235.695 169.207,230.800 174.812 C 229.590 176.197,227.925 178.022,227.100 178.866 C 226.080 179.909,225.804 180.400,226.237 180.400 C 226.588 180.400,226.969 180.040,227.084 179.600 C 227.199 179.160,227.548 178.800,227.859 178.800 C 228.170 178.800,228.546 178.486,228.693 178.101 C 228.841 177.717,229.915 176.441,231.081 175.266 C 232.246 174.091,233.200 173.006,233.200 172.854 C 233.200 172.702,233.576 172.255,234.037 171.862 C 234.924 171.101,234.829 169.322,233.868 168.710 C 232.622 167.917,212.845 168.368,212.400 169.200 C 212.165 169.640,211.751 170.000,211.482 170.000 C 211.212 170.000,210.543 170.557,209.996 171.238 C 208.646 172.917,205.680 176.000,205.415 176.000 C 205.297 176.000,205.200 174.638,205.200 172.974 C 205.200 168.083,205.909 168.400,194.986 168.400 C 186.133 168.400,185.555 168.445,184.800 169.200 M97.800 170.872 C 101.745 172.936,106.800 178.103,106.800 180.073 C 106.800 180.419,107.060 180.917,107.377 181.181 C 107.694 181.444,108.025 182.231,108.113 182.930 C 108.251 184.029,108.281 183.977,108.336 182.549 C 108.376 181.522,108.179 180.715,107.815 180.413 C 107.494 180.146,107.113 179.555,106.968 179.098 C 106.568 177.840,104.188 174.701,102.950 173.800 C 102.345 173.360,101.408 172.595,100.867 172.100 C 100.326 171.605,99.662 171.200,99.391 171.200 C 99.120 171.200,98.674 170.930,98.400 170.600 C 98.126 170.270,97.519 170.008,97.051 170.018 C 96.408 170.031,96.591 170.240,97.800 170.872 M128.400 170.600 C 128.126 170.930,127.680 171.200,127.409 171.200 C 127.138 171.200,126.454 171.605,125.889 172.100 C 125.324 172.595,124.225 173.450,123.447 174.000 C 122.668 174.550,121.530 175.694,120.916 176.543 C 120.302 177.392,119.485 178.427,119.100 178.843 C 118.715 179.259,118.400 179.752,118.400 179.938 C 118.400 180.124,118.040 180.602,117.600 181.000 C 117.160 181.398,116.813 182.101,116.828 182.562 C 116.849 183.194,116.925 183.253,117.137 182.800 C 117.813 181.353,119.310 179.200,119.640 179.200 C 119.838 179.200,120.000 178.952,120.000 178.649 C 120.000 177.786,126.862 171.600,127.820 171.600 C 128.072 171.600,128.693 171.240,129.200 170.800 C 129.872 170.217,129.956 170.000,129.510 170.000 C 129.173 170.000,128.674 170.270,128.400 170.600 M276.611 170.546 C 277.045 170.846,277.850 171.227,278.400 171.392 C 278.950 171.557,279.760 171.995,280.200 172.366 C 280.640 172.737,281.777 173.559,282.726 174.193 C 284.773 175.559,287.933 178.934,289.717 181.659 C 290.420 182.734,291.060 183.420,291.139 183.183 C 291.218 182.947,291.006 182.449,290.669 182.076 C 290.332 181.703,289.868 180.904,289.638 180.299 C 289.408 179.695,288.945 179.200,288.610 179.200 C 288.274 179.200,288.000 178.924,288.000 178.587 C 288.000 178.251,287.737 177.874,287.415 177.750 C 287.094 177.627,286.721 177.183,286.588 176.763 C 286.455 176.343,286.178 176.000,285.973 176.000 C 285.768 176.000,285.253 175.685,284.829 175.300 C 282.633 173.307,279.632 171.218,278.949 171.207 C 278.701 171.203,278.274 170.930,278.000 170.600 C 277.726 170.270,277.124 170.000,276.662 170.000 C 275.834 170.000,275.833 170.008,276.611 170.546 M223.328 183.110 C 222.215 184.369,220.847 185.940,220.288 186.600 L 219.271 187.800 212.340 188.000 C 206.606 188.165,205.389 188.304,205.294 188.800 C 205.086 189.879,216.894 189.443,219.100 188.290 C 220.035 187.801,220.800 187.275,220.800 187.121 C 220.800 186.967,221.271 186.337,221.847 185.721 C 223.802 183.629,225.714 181.180,225.533 181.000 C 225.434 180.901,224.442 181.850,223.328 183.110 M115.864 184.329 C 115.499 184.733,115.200 185.492,115.200 186.016 C 115.200 186.817,115.327 186.721,115.994 185.412 C 116.892 183.651,116.843 183.247,115.864 184.329 M291.200 184.320 C 291.200 184.496,291.399 184.839,291.643 185.083 C 291.887 185.327,292.228 186.128,292.402 186.863 L 292.718 188.200 292.759 186.874 C 292.803 185.447,292.212 184.000,291.586 184.000 C 291.374 184.000,291.200 184.144,291.200 184.320 M142.400 186.002 C 141.190 186.638,139.705 187.387,139.099 187.667 C 138.493 187.947,137.896 188.497,137.772 188.888 C 137.648 189.280,137.381 189.600,137.178 189.600 C 136.976 189.600,136.557 190.208,136.246 190.951 C 135.936 191.694,135.483 192.425,135.241 192.575 C 134.391 193.100,134.682 200.323,135.600 201.491 C 136.040 202.050,136.400 202.725,136.400 202.990 C 136.400 204.758,141.327 208.163,144.600 208.657 L 145.800 208.838 144.800 208.244 C 144.250 207.917,143.141 207.535,142.336 207.395 C 141.530 207.256,140.557 206.795,140.174 206.371 C 139.790 205.947,139.229 205.600,138.928 205.600 C 138.627 205.600,138.204 205.136,137.989 204.570 C 137.773 204.003,137.328 203.270,136.998 202.941 C 136.669 202.612,136.400 202.108,136.400 201.820 C 136.400 201.533,136.130 201.074,135.800 200.800 C 135.355 200.431,135.200 199.447,135.200 197.000 C 135.200 194.553,135.355 193.569,135.800 193.200 C 136.130 192.926,136.400 192.428,136.400 192.092 C 136.400 191.292,139.107 188.000,139.765 188.000 C 140.046 188.000,140.602 187.640,141.000 187.200 C 141.398 186.760,142.191 186.394,142.762 186.387 C 143.333 186.380,144.149 186.110,144.576 185.787 C 145.444 185.131,147.428 184.999,147.783 185.573 C 147.910 185.778,148.985 186.148,150.172 186.394 C 151.359 186.641,152.431 187.103,152.553 187.421 C 152.675 187.740,153.038 188.000,153.360 188.000 C 153.683 188.000,154.060 188.360,154.200 188.800 C 154.340 189.240,154.712 189.600,155.027 189.600 C 155.342 189.600,155.600 189.903,155.600 190.274 C 155.600 190.645,156.003 191.377,156.496 191.902 C 157.835 193.328,157.835 200.066,156.496 201.769 C 156.003 202.396,155.600 203.068,155.600 203.264 C 155.600 204.158,152.061 207.100,150.673 207.360 C 149.868 207.511,148.623 207.903,147.905 208.231 L 146.600 208.828 148.000 208.656 C 152.992 208.044,157.346 203.744,157.850 198.929 C 158.205 195.531,157.718 192.094,156.767 191.279 C 156.345 190.918,156.000 190.406,156.000 190.142 C 156.000 189.607,152.427 186.414,151.800 186.389 C 151.580 186.380,150.680 186.025,149.800 185.600 C 147.489 184.484,145.037 184.617,142.400 186.002 M257.000 185.753 C 251.037 188.326,246.743 196.632,249.552 200.160 C 249.744 200.402,250.032 201.024,250.191 201.541 C 250.968 204.071,253.757 206.945,256.389 207.926 C 259.227 208.985,259.480 209.025,258.757 208.301 C 258.404 207.947,257.488 207.540,256.721 207.396 C 255.453 207.158,253.794 205.825,251.508 203.208 C 251.127 202.772,250.610 201.599,250.358 200.601 C 250.107 199.603,249.744 198.689,249.551 198.570 C 249.067 198.270,249.108 195.304,249.600 195.000 C 249.820 194.864,250.199 193.965,250.441 193.003 C 250.683 192.041,251.133 191.158,251.441 191.040 C 251.748 190.922,252.000 190.589,252.000 190.301 C 252.000 189.250,255.800 186.400,257.201 186.400 C 257.776 186.400,258.596 186.136,259.024 185.813 C 260.011 185.066,261.773 185.040,262.914 185.755 C 263.401 186.060,264.458 186.425,265.261 186.566 C 266.065 186.707,266.824 187.087,266.949 187.411 C 267.073 187.735,267.369 188.000,267.607 188.000 C 268.145 188.000,269.970 190.038,269.987 190.657 C 269.994 190.909,270.247 191.209,270.549 191.325 C 272.171 191.947,272.153 202.060,270.528 202.683 C 270.238 202.794,270.000 203.109,270.000 203.381 C 270.000 204.224,266.498 207.115,265.112 207.417 C 263.541 207.759,261.847 208.800,262.861 208.800 C 265.950 208.800,270.998 204.458,271.819 201.096 C 271.967 200.489,272.249 199.894,272.444 199.773 C 272.908 199.486,272.908 194.514,272.444 194.227 C 272.249 194.106,271.965 193.511,271.813 192.904 C 270.360 187.078,262.605 183.334,257.000 185.753 M108.412 205.420 C 108.403 219.511,108.279 224.361,107.920 224.720 C 107.329 225.311,90.124 225.392,89.200 224.809 C 88.684 224.483,88.583 221.882,88.481 206.215 L 88.362 188.000 79.381 188.000 C 74.441 188.000,70.361 188.045,70.314 188.100 C 70.267 188.155,70.132 196.270,70.014 206.133 C 69.809 223.290,69.766 224.090,69.024 224.633 C 67.515 225.735,50.475 225.437,49.991 224.300 C 49.614 223.413,49.609 223.415,49.704 224.400 L 49.800 225.400 59.493 225.507 C 72.333 225.649,70.800 228.266,70.800 206.200 L 70.800 188.400 78.976 188.400 C 85.078 188.400,87.235 188.527,87.476 188.900 C 87.654 189.175,87.890 197.248,88.000 206.839 C 88.160 220.807,88.309 224.410,88.749 224.939 C 89.231 225.519,90.440 225.600,98.620 225.600 L 107.942 225.600 108.786 224.526 C 109.804 223.232,109.920 189.053,108.912 187.400 C 108.524 186.763,108.422 190.440,108.412 205.420 M114.846 187.529 C 114.821 187.819,114.530 188.327,114.200 188.657 C 113.792 189.065,113.617 189.984,113.653 191.529 L 113.707 193.800 113.972 192.000 C 114.117 191.010,114.465 189.786,114.744 189.279 C 115.022 188.773,115.170 188.053,115.072 187.679 C 114.973 187.306,114.872 187.238,114.846 187.529 M228.388 188.407 C 227.327 189.061,227.305 203.956,228.364 205.227 C 229.321 206.377,229.524 205.463,228.587 204.224 C 227.728 203.087,227.746 191.097,228.610 189.440 C 229.293 188.130,229.240 187.881,228.388 188.407 M292.813 188.654 C 292.806 188.904,293.069 189.624,293.398 190.254 C 293.845 191.111,293.995 192.810,293.995 197.000 C 293.995 201.190,293.845 202.889,293.398 203.746 C 292.557 205.357,292.678 205.978,293.613 204.856 C 294.329 203.997,294.400 203.286,294.400 197.000 C 294.400 190.714,294.329 190.003,293.613 189.144 C 293.181 188.625,292.821 188.404,292.813 188.654 M113.656 204.200 C 113.621 205.592,113.847 206.565,114.400 207.400 C 115.079 208.425,115.195 208.480,115.197 207.780 C 115.199 207.329,114.983 206.743,114.718 206.478 C 114.453 206.213,114.117 205.142,113.972 204.098 L 113.707 202.200 113.656 204.200 M292.400 206.911 C 292.400 207.412,292.112 208.234,291.759 208.737 C 290.983 209.845,291.252 210.291,292.152 209.390 C 292.730 208.813,293.102 206.000,292.600 206.000 C 292.490 206.000,292.400 206.410,292.400 206.911 M229.254 208.038 C 229.224 208.624,229.548 209.391,230.000 209.800 C 230.440 210.198,230.800 210.338,230.800 210.111 C 230.800 209.884,230.541 209.483,230.224 209.220 C 229.907 208.957,229.572 208.350,229.478 207.871 C 229.332 207.116,229.302 207.138,229.254 208.038 M115.254 209.638 C 115.224 210.224,115.548 210.991,116.000 211.400 C 116.440 211.798,116.800 211.938,116.800 211.711 C 116.800 211.484,116.541 211.083,116.224 210.820 C 115.907 210.557,115.572 209.950,115.478 209.471 C 115.332 208.716,115.302 208.738,115.254 209.638 M290.300 211.412 C 289.915 211.928,289.600 212.526,289.600 212.741 C 289.600 213.221,288.389 214.673,285.937 217.132 C 284.032 219.043,283.237 219.710,280.822 221.423 C 279.908 222.071,279.674 222.400,280.126 222.400 C 280.501 222.400,281.116 222.040,281.493 221.600 C 281.870 221.160,282.318 220.800,282.489 220.800 C 282.826 220.800,283.746 220.029,285.487 218.287 C 288.150 215.622,289.600 214.045,289.600 213.815 C 289.600 213.679,289.981 213.052,290.446 212.423 C 290.912 211.793,291.227 211.097,291.146 210.876 C 291.066 210.655,290.685 210.896,290.300 211.412 M230.800 211.326 C 230.800 211.701,231.160 212.316,231.600 212.693 C 232.040 213.070,232.400 213.566,232.400 213.796 C 232.400 214.271,235.894 218.419,236.737 218.945 C 237.041 219.135,237.630 219.630,238.045 220.045 C 238.460 220.460,238.965 220.800,239.168 220.800 C 239.370 220.800,238.020 219.271,236.168 217.402 C 234.315 215.533,232.800 213.858,232.800 213.680 C 232.800 213.501,232.350 212.745,231.800 212.000 C 231.121 211.080,230.800 210.864,230.800 211.326 M116.832 213.011 C 116.814 213.457,117.115 214.121,117.500 214.486 C 117.885 214.851,118.507 215.566,118.883 216.075 C 120.644 218.460,121.714 219.600,122.193 219.600 C 122.480 219.600,122.818 219.870,122.945 220.200 C 123.071 220.530,123.394 220.800,123.661 220.800 C 123.928 220.800,123.255 219.945,122.166 218.900 C 119.995 216.819,117.434 213.744,117.085 212.800 C 116.927 212.374,116.854 212.435,116.832 213.011 M359.281 215.982 C 359.833 216.866,360.222 216.755,359.862 215.817 C 359.732 215.478,359.438 215.200,359.209 215.200 C 358.946 215.200,358.972 215.487,359.281 215.982 M155.391 221.009 C 154.516 221.757,154.003 222.377,154.251 222.385 C 154.499 222.393,154.934 222.120,155.218 221.778 C 157.040 219.583,157.200 219.971,157.200 226.586 L 157.200 232.800 148.654 232.800 C 139.659 232.800,138.926 232.944,137.519 234.979 C 136.759 236.079,135.250 237.829,133.900 239.177 C 133.075 240.001,132.400 240.883,132.400 241.138 C 132.400 241.392,132.124 241.600,131.787 241.600 C 131.451 241.600,131.063 241.892,130.926 242.248 C 130.790 242.604,130.120 243.461,129.439 244.151 C 127.573 246.042,126.000 248.013,126.000 248.459 C 126.000 248.931,126.966 248.004,128.534 246.029 C 129.867 244.349,134.463 239.256,137.639 235.938 L 139.878 233.600 148.496 233.600 C 158.658 233.600,157.602 234.428,157.594 226.467 C 157.587 219.428,157.497 219.206,155.391 221.009 M124.532 221.333 C 124.679 221.736,124.800 222.141,124.800 222.233 C 124.800 222.325,125.136 222.400,125.546 222.400 C 125.956 222.400,126.750 222.760,127.309 223.200 C 127.869 223.640,128.658 223.997,129.063 223.994 C 129.851 223.988,128.942 223.343,126.801 222.389 C 126.251 222.145,125.456 221.642,125.033 221.272 C 124.308 220.639,124.280 220.642,124.532 221.333 M240.071 221.214 C 240.241 221.722,242.475 223.193,244.000 223.801 C 244.330 223.932,245.266 224.391,246.079 224.820 C 246.893 225.249,248.243 225.575,249.079 225.546 C 250.138 225.508,250.296 225.440,249.600 225.322 C 248.201 225.086,244.327 223.542,243.569 222.919 C 243.221 222.633,242.750 222.400,242.522 222.400 C 242.294 222.400,241.607 222.006,240.996 221.525 C 240.306 220.982,239.955 220.864,240.071 221.214 M152.056 223.213 C 151.201 223.925,151.184 224.000,151.876 224.000 C 152.655 224.000,153.600 223.298,153.600 222.720 C 153.600 222.202,153.065 222.373,152.056 223.213 M278.000 223.000 C 277.726 223.330,277.119 223.614,276.651 223.632 C 276.183 223.649,276.033 223.757,276.317 223.871 C 277.118 224.192,278.686 223.674,278.943 223.003 C 279.242 222.226,278.644 222.224,278.000 223.000 M131.000 224.800 C 131.869 225.376,132.807 225.580,134.400 225.541 L 136.600 225.487 134.600 225.228 C 133.500 225.086,132.207 224.751,131.726 224.485 C 130.290 223.688,129.704 223.942,131.000 224.800 M149.400 224.494 C 148.960 224.752,147.880 225.084,147.000 225.232 L 145.400 225.500 147.256 225.550 C 148.569 225.585,149.388 225.370,150.056 224.813 C 151.090 223.951,150.672 223.747,149.400 224.494 M274.488 224.472 C 274.228 224.732,273.247 225.069,272.308 225.222 L 270.600 225.500 272.471 225.550 C 274.104 225.594,275.600 224.934,275.600 224.171 C 275.600 223.833,274.951 224.009,274.488 224.472 M138.255 226.015 C 139.008 226.768,141.364 226.900,142.810 226.270 L 144.200 225.665 141.020 225.633 C 138.826 225.610,137.968 225.728,138.255 226.015 M251.200 226.010 C 251.200 227.453,268.453 227.721,269.872 226.300 C 270.718 225.454,270.314 225.427,268.200 226.188 C 265.891 227.020,254.645 227.027,253.054 226.198 C 251.710 225.496,251.200 225.445,251.200 226.010 " stroke="none" fill="#304aa4" fill-rule="evenodd"></path></g></svg>