<svg width="24" height="24" viewBox="0 0 24 24" fill="none" xmlns="http://www.w3.org/2000/svg">
<g clip-path="url(#clip0_449_16421)">
<path fill-rule="evenodd" clip-rule="evenodd" d="M3.01329 15.2695H3V8.41993H3.01362C3.06461 8.12639 3.25844 7.87373 3.53571 7.7505L11.6618 4.13891C11.8956 4.03508 12.162 4.03508 12.3958 4.13891L20.5219 7.7505C20.7999 7.87373 20.9939 8.12639 21.0449 8.41993H21.0579V8.55154L21.0581 8.56264L21.0582 8.57484C21.0582 8.58263 21.0581 8.59039 21.0579 8.59814V15.2695H21.0446C21.0534 15.32 21.0579 15.3717 21.0579 15.4242C21.0579 15.4406 21.0575 15.457 21.0566 15.4733C21.0383 15.811 20.8326 16.1107 20.5216 16.2494L12.3955 19.861C12.2782 19.9125 12.1536 19.9387 12.0289 19.9387C11.9034 19.9387 11.7789 19.9125 11.6615 19.861L3.53542 16.2494C3.23174 16.1136 3.02816 15.8233 3.0027 15.4942C3.00091 15.471 3 15.4477 3 15.4242C3 15.3717 3.00453 15.32 3.01329 15.2695ZM19.3222 9.08372C19.6071 9.05886 19.842 9.25067 19.8469 9.51217L19.9515 15.0861C19.9564 15.3476 19.7294 15.5798 19.4445 15.6047C19.1596 15.6295 18.9246 15.4377 18.9197 15.1762L18.8152 9.60222C18.8103 9.34073 19.0373 9.10859 19.3222 9.08372ZM17.8622 10.1067C17.8573 9.84526 17.6223 9.65344 17.3375 9.67831C17.0526 9.70318 16.8256 9.93532 16.8305 10.1968L16.935 15.7708C16.9399 16.0323 17.1749 16.2241 17.4598 16.1992C17.7447 16.1744 17.9716 15.9422 17.9668 15.6808L17.8622 10.1067ZM15.3527 10.5335C15.6376 10.5087 15.8725 10.7005 15.8775 10.962L15.982 16.536C15.9869 16.7975 15.7599 17.0296 15.475 17.0544C15.1902 17.0793 14.9552 16.8875 14.9503 16.626L14.8457 11.052C14.8408 10.7905 15.0678 10.5584 15.3527 10.5335ZM13.8928 11.9585C13.8878 11.697 13.6529 11.5052 13.368 11.53C13.0831 11.5549 12.8561 11.7871 12.861 12.0486L12.9655 17.6226C12.9704 17.884 13.2054 18.0759 13.4903 18.0509C13.7752 18.0261 14.0022 17.794 13.9973 17.5325L13.8928 11.9585Z" fill="black"/>
</g>
<defs>
<clipPath id="clip0_449_16421">
<rect width="18" height="18" fill="white" transform="translate(3 3)"/>
</clipPath>
</defs>
</svg>
