<svg width="777" height="754" viewBox="0 0 777 754" fill="none" xmlns="http://www.w3.org/2000/svg">
<g clip-path="url(#clip0_6030_2490)">
<path d="M385.807 0.0664062C394.447 -0.370446 403.059 1.35246 410.854 5.07617L681.011 134.074C688.002 137.413 694.146 142.271 698.984 148.288C703.823 154.305 707.233 161.326 708.96 168.829L775.705 458.748C777.433 466.254 777.432 474.051 775.703 481.557C773.975 489.063 770.563 496.086 765.721 502.104L578.821 734.606C573.978 740.615 567.832 745.465 560.841 748.796C553.849 752.127 546.192 753.854 538.436 753.849L238.602 753.918C230.842 753.919 223.182 752.187 216.19 748.85C209.199 745.512 203.055 740.656 198.216 734.641L11.2471 502.174C10.2018 500.863 9.22176 499.502 8.31055 498.097C4.55265 492.347 1.9956 485.908 0.791016 479.161C-0.413487 472.414 -0.240954 465.496 1.29785 458.816L67.9395 168.897C69.6669 161.395 73.0766 154.374 77.915 148.357C82.7535 142.341 88.8964 137.482 95.8877 134.144L366.011 5.07617C372.207 2.11595 378.938 0.412428 385.807 0.0664062ZM388.483 98.7295C379.554 98.7304 372.314 106.773 372.315 116.694C372.315 116.846 372.346 116.992 372.35 117.144C372.336 118.491 372.272 120.116 372.315 121.289C372.528 127.011 373.776 131.39 374.526 136.662C375.886 147.946 377.027 157.3 376.323 165.993C375.639 169.271 373.224 172.27 371.071 174.354L370.691 181.193C360.989 181.997 351.221 183.469 341.465 185.685C299.484 195.216 263.339 216.841 235.82 246.038C234.035 244.82 230.91 242.579 229.981 241.893C227.095 242.282 224.177 243.173 220.377 240.96C213.142 236.09 206.552 229.366 198.578 221.268C194.925 217.394 192.278 213.705 187.938 209.971C186.952 209.123 185.447 207.976 184.345 207.104C180.951 204.398 176.948 202.987 173.082 202.854C168.112 202.684 163.327 204.628 160.196 208.555C154.63 215.536 156.412 226.208 164.169 232.393C164.248 232.455 164.332 232.503 164.411 232.564C165.477 233.428 166.782 234.536 167.762 235.26C172.368 238.661 176.576 240.402 181.166 243.102C190.836 249.073 198.852 254.025 205.211 259.995C207.694 262.642 208.129 267.306 208.459 269.323L213.641 273.952C185.9 315.7 173.061 367.267 180.648 419.81L173.877 421.779C172.092 424.084 169.57 427.71 166.933 428.792C158.614 431.412 149.251 432.375 137.948 433.56C132.641 434.001 128.063 433.738 122.437 434.804C121.198 435.038 119.473 435.488 118.118 435.806C118.071 435.815 118.027 435.829 117.979 435.84C117.906 435.857 117.809 435.893 117.738 435.909C108.209 438.212 102.087 446.97 104.058 455.601C106.029 464.233 115.337 469.482 124.924 467.416C124.993 467.4 125.094 467.397 125.166 467.381C125.274 467.356 125.369 467.304 125.477 467.277C126.813 466.984 128.488 466.658 129.657 466.345C135.188 464.864 139.195 462.688 144.167 460.783C154.865 456.946 163.725 453.74 172.356 452.491C175.962 452.209 179.761 454.716 181.65 455.773L188.697 454.564C204.915 504.846 238.904 545.487 281.94 570.988L279.004 578.035C280.062 580.772 281.23 584.475 280.441 587.178C277.303 595.315 271.927 603.905 265.807 613.48C262.843 617.905 259.81 621.338 257.136 626.401C256.496 627.613 255.68 629.474 255.062 630.754C250.907 639.645 253.955 649.886 261.938 653.729C269.97 657.595 279.94 653.516 284.255 644.607C284.261 644.595 284.283 644.586 284.289 644.573C284.293 644.564 284.285 644.549 284.289 644.539C284.904 643.276 285.775 641.615 286.293 640.428C288.584 635.18 289.346 630.682 290.957 625.606C295.235 614.861 297.586 603.586 303.475 596.561C305.087 594.637 307.716 593.897 310.441 593.167L314.104 586.534C351.622 600.935 393.619 604.8 435.571 595.274C445.141 593.101 454.381 590.289 463.312 586.914C464.342 588.74 466.254 592.249 466.767 593.133C469.536 594.034 472.56 594.499 475.023 598.142C479.429 605.669 482.443 614.574 486.113 625.33C487.724 630.406 488.52 634.904 490.812 640.151C491.334 641.347 492.2 643.031 492.815 644.297C497.121 653.234 507.123 657.327 515.167 653.452C523.148 649.607 526.2 639.367 522.042 630.478C521.424 629.197 520.575 627.336 519.935 626.125C517.26 621.062 514.228 617.663 511.264 613.239C505.142 603.663 500.065 595.708 496.927 587.57C495.614 583.373 497.148 580.763 498.17 578.035C497.558 577.332 496.248 573.37 495.476 571.506C540.201 545.097 573.191 502.941 588.684 454.253C590.776 454.582 594.412 455.226 595.593 455.463C598.024 453.859 600.261 451.766 604.645 452.111C613.277 453.36 622.137 456.566 632.835 460.402C637.808 462.307 641.814 464.518 647.345 465.999C648.514 466.312 650.188 466.604 651.524 466.897C651.632 466.924 651.728 466.976 651.836 467.001C651.908 467.017 652.008 467.02 652.077 467.036C661.664 469.1 670.974 463.853 672.943 455.221C674.912 446.59 668.793 437.829 659.263 435.529C657.876 435.214 655.911 434.678 654.564 434.423C648.939 433.357 644.359 433.621 639.053 433.18C627.75 431.995 618.387 431.032 610.068 428.412C606.677 427.096 604.263 423.061 603.09 421.399L596.561 419.499C599.946 395.007 599.033 369.518 593.175 344.014C587.262 318.272 576.813 294.729 562.877 273.986C564.552 272.464 567.714 269.663 568.611 268.839C568.873 265.938 568.649 262.897 571.651 259.685C578.009 253.714 586.027 248.763 595.696 242.791C600.286 240.091 604.529 238.35 609.136 234.948C610.177 234.179 611.599 232.961 612.693 232.081C620.449 225.894 622.235 215.224 616.667 208.244C611.099 201.264 600.308 200.606 592.553 206.793C591.449 207.667 589.951 208.808 588.96 209.66C584.619 213.394 581.939 217.083 578.285 220.957C570.312 229.056 563.721 235.813 556.485 240.684C553.35 242.509 548.758 241.877 546.674 241.754L540.524 246.142C505.459 209.372 457.717 185.864 406.31 181.297C406.166 179.143 405.978 175.248 405.93 174.076C403.825 172.062 401.282 170.343 400.644 165.992C399.94 157.299 401.115 147.945 402.475 136.662C403.225 131.39 404.473 127.011 404.686 121.289C404.734 119.988 404.657 118.101 404.651 116.694C404.65 106.773 397.413 98.7286 388.483 98.7295ZM387.965 467.416C390.203 467.334 392.474 467.793 394.633 468.832C397.462 470.195 399.649 472.34 401.024 474.912H401.335L442.48 549.258C437.141 551.048 431.651 552.578 426.036 553.853C394.568 560.997 363.2 558.833 334.797 549.154L375.839 474.947H375.908C378.371 470.344 383.041 467.597 387.965 467.416ZM458.855 432.834C459.961 432.778 461.062 432.878 462.138 433.076L462.276 432.903L546.467 447.137C534.145 481.753 510.568 511.743 479.065 531.812L446.384 452.871L446.488 452.733C443.486 445.758 446.49 437.578 453.397 434.251C455.166 433.399 457.013 432.927 458.855 432.834ZM317.455 433.18C323.88 433.27 329.643 437.73 331.136 444.27C331.834 447.331 331.494 450.365 330.341 453.044L330.582 453.355L298.246 531.5C268.014 512.1 243.934 483.053 231.053 447.413L314.519 433.249L314.656 433.422C315.59 433.25 316.537 433.167 317.455 433.18ZM417.641 383.881L411.837 409.101L388.483 420.328L365.061 409.065L359.257 383.847L375.459 363.671H401.473L417.641 383.881ZM309.06 359.283L308.99 359.629C314.722 364.611 315.567 373.258 310.787 379.252C308.829 381.707 306.207 383.354 303.394 384.123L303.325 384.399L221.932 407.892C217.789 370.011 226.718 333.188 245.562 302.488L309.06 359.283ZM530.955 302.522C540.39 317.814 547.534 334.894 551.787 353.41C555.989 371.704 557.044 389.967 555.312 407.615L473.504 384.054L473.435 383.708C466.109 381.706 461.607 374.254 463.312 366.78C464.011 363.718 465.636 361.128 467.838 359.214L467.804 359.042L530.955 302.522ZM363.437 308.948L363.091 309.121C362.769 316.709 356.524 322.768 348.857 322.768C345.717 322.767 342.818 321.759 340.463 320.038L340.325 320.107L270.781 270.809C292.155 249.792 319.494 234.26 351 227.106C356.755 225.8 362.508 224.83 368.239 224.136L363.437 308.948ZM408.763 224.136C445.547 228.66 479.565 245.315 505.633 270.843L436.538 319.831L436.297 319.728C430.164 324.207 421.523 323.095 416.743 317.102C414.785 314.646 413.757 311.759 413.634 308.845L413.564 308.811L408.763 224.136Z" fill="#326CE5"/>
</g>
<defs>
<clipPath id="clip0_6030_2490">
<rect width="777" height="753.918" fill="white"/>
</clipPath>
</defs>
</svg>
