<svg width="110" height="41" viewBox="0 0 110 41" fill="none" xmlns="http://www.w3.org/2000/svg">
<g clip-path="url(#clip0_5696_15580)">
<path d="M37.2834 13.9725C35.7654 12.2669 33.8878 11.4082 31.6564 11.4082C30.2811 11.4082 29.0141 11.6769 27.8498 12.2201C26.6856 12.7634 25.6813 13.4994 24.8308 14.4399C23.9862 15.3861 23.3186 16.4842 22.8278 17.7577C22.3369 19.0252 22.0916 20.398 22.0916 21.8816C22.0916 23.3361 22.3199 24.6621 22.7706 25.8595C23.2272 27.0512 23.8606 28.0734 24.6824 28.9262C25.5042 29.779 26.4802 30.445 27.6101 30.9239C28.7402 31.403 29.9786 31.6425 31.3254 31.6425C31.936 31.6425 32.501 31.5957 33.0147 31.5081C33.5282 31.4204 34.0191 31.2745 34.487 31.0759C34.955 30.8714 35.4115 30.6144 35.8682 30.3048C36.319 29.9894 36.7927 29.5922 37.2834 29.119V34.1834H37.2777V34.674H31.0458L26.3603 40.0714V41.0002H43.9434V38.8096V11.9398H37.2834V13.9725ZM37.2663 23.2544C37.0324 23.7917 36.7241 24.2649 36.3476 24.668C35.9651 25.0709 35.5142 25.3806 34.9893 25.6084C34.4642 25.8362 33.9049 25.9472 33.3172 25.9472C32.7008 25.9472 32.1301 25.8362 31.605 25.6084C31.08 25.3806 30.6235 25.0709 30.241 24.668C29.8587 24.2649 29.562 23.7917 29.3394 23.2544C29.1168 22.7169 29.0084 22.127 29.0084 21.502C29.0084 20.9003 29.1225 20.3336 29.3565 19.8079C29.5905 19.2822 29.8986 18.8266 30.2982 18.4353C30.6919 18.0439 31.1428 17.7344 31.6564 17.4948C32.17 17.2553 32.7236 17.1385 33.3114 17.1385C33.8764 17.1385 34.4186 17.2495 34.9493 17.4773C35.4743 17.6993 35.9366 18.0147 36.3304 18.4178C36.7241 18.8209 37.0324 19.2822 37.2721 19.8079C37.506 20.3336 37.6202 20.912 37.6202 21.5429C37.6145 22.1446 37.5004 22.7169 37.2663 23.2544Z" fill="#3E6FF4"/>
<path d="M18.7017 14.288C18.3479 13.8616 17.9484 13.4937 17.5203 13.1666C17.138 12.8803 16.7328 12.6291 16.2934 12.4247C16.0823 12.3254 15.8597 12.2436 15.6256 12.1677C15.289 12.0567 14.9237 11.9808 14.547 11.9165H9.79885L6.66003 15.579V15.1526V11.9924H0V31.3155H6.66003V23.0267V18.2776H7.58455H9.43932H12.835H12.9149L13.4342 18.2659V31.3096H20.0942V19.2239C20.0942 18.1959 19.9972 17.2787 19.8032 16.4727C19.6092 15.6724 19.2439 14.9481 18.7017 14.288Z" fill="#3E6FF4"/>
<path d="M63.5294 11.9395H58.5929C58.5929 11.9395 56.8294 11.9395 56.2644 11.9395L53.3767 15.269V11.9395H46.7109V31.2625H53.3882L53.3938 18.3298H55.5854H58.2391L63.5294 12.2082V11.9395Z" fill="#3E6FF4"/>
<path d="M99.5181 20.865L108.626 12.2667V11.9396H99.8491L92.8638 18.9083V0H86.2039V31.2567H92.8638V23.3886L100.186 31.2567H109.147V30.8888L99.5181 20.865Z" fill="#3E6FF4"/>
<path d="M80.9986 14.1418C79.9828 13.2247 78.7786 12.5121 77.3919 11.9981C76.005 11.4841 74.5041 11.2271 72.8833 11.2271C71.2397 11.2271 69.7217 11.4899 68.3405 12.0156C66.9538 12.5413 65.761 13.2657 64.7508 14.1769C63.7465 15.0939 62.9589 16.1747 62.3939 17.4189C61.8289 18.663 61.5493 20.0007 61.5493 21.4318C61.5493 23.0147 61.8289 24.4518 62.3939 25.7427C62.9589 27.0336 63.735 28.1435 64.7338 29.0722C65.7268 30.001 66.9081 30.7194 68.2835 31.2218C69.6589 31.7242 71.1541 31.9753 72.7749 31.9753C74.4185 31.9753 75.9423 31.7242 77.3576 31.2218C78.7673 30.7194 79.9771 30.0127 80.9815 29.0897C81.9859 28.1727 82.7792 27.0803 83.3557 25.8127C83.932 24.5452 84.2231 23.1491 84.2231 21.6129C84.2231 20.0825 83.9378 18.6805 83.3784 17.413C82.8077 16.1512 82.0144 15.0589 80.9986 14.1418ZM76.8383 23.2893C76.6042 23.8267 76.2961 24.2998 75.9194 24.7029C75.5371 25.106 75.0862 25.4156 74.5612 25.6434C74.0305 25.8712 73.4769 25.9821 72.889 25.9821C72.3012 25.9821 71.742 25.8712 71.2112 25.6434C70.6861 25.4156 70.2296 25.106 69.8529 24.7029C69.4706 24.2998 69.1681 23.8267 68.9342 23.2893C68.7001 22.752 68.586 22.156 68.586 21.5018C68.586 20.9002 68.7001 20.3336 68.9342 19.8079C69.1681 19.2822 69.4706 18.8207 69.8529 18.4177C70.2352 18.0147 70.6861 17.6992 71.2112 17.4772C71.742 17.2494 72.2955 17.1384 72.889 17.1384C73.4769 17.1384 74.0361 17.2494 74.5612 17.4772C75.0862 17.6992 75.5427 18.0147 75.9194 18.4177C76.3019 18.8207 76.6042 19.2939 76.8383 19.8312C77.0722 20.3687 77.1863 20.9412 77.1863 21.5427C77.1863 22.1678 77.0722 22.752 76.8383 23.2893Z" fill="#3E6FF4"/>
</g>
<defs>
<clipPath id="clip0_5696_15580">
<rect width="110" height="41" fill="white"/>
</clipPath>
</defs>
</svg>
